<?xml version="1.0" standalone="no"?>
<!DOCTYPE svg PUBLIC "-//W3C//DTD SVG 20010904//EN"
  "http://www.w3.org/TR/2001/REC-SVG-20010904/DTD/svg10.dtd">
<svg version="1.0" xmlns="http://www.w3.org/2000/svg" viewBox="0 0 514.000000 111.000000"
     preserveAspectRatio="xMidYMid meet">
  <metadata>
    Created by potrace 1.15, written by Peter Selinger 2001-2017
  </metadata>
  <g transform="translate(0.000000,111.000000) scale(0.100000,-0.100000)" stroke="none">
    <path d="M1205 929 c-98 -28 -193 -120 -230 -222 -26 -69 -27 -221 -2 -292 56
-159 193 -243 382 -233 98 5 173 32 242 84 36 27 35 32 -11 88 l-23 28 -43
-31 c-76 -55 -186 -75 -271 -49 -73 21 -143 100 -163 181 l-6 27 291 0 292 0
-5 89 c-7 110 -36 180 -105 249 -65 65 -137 92 -241 91 -42 0 -90 -5 -107 -10z
m175 -109 c50 -14 104 -62 129 -115 42 -89 52 -85 -203 -85 l-223 0 5 25 c2
14 18 48 36 77 52 88 154 127 256 98z"/>
    <path d="M2115 926 c-21 -8 -58 -29 -82 -45 l-43 -31 0 40 0 40 -60 0 -60 0 0
-370 0 -370 60 0 60 0 0 223 c0 124 5 239 11 260 5 21 24 54 42 74 89 101 264
97 334 -8 l28 -42 3 -254 3 -253 65 0 66 0 -4 267 c-3 254 -4 271 -26 318 -50
109 -130 157 -267 162 -62 2 -102 -1 -130 -11z"/>
    <path d="M3035 926 c-21 -8 -58 -29 -82 -45 l-43 -31 0 40 0 40 -60 0 -60 0 0
-370 0 -370 60 0 60 0 0 223 c0 124 5 239 11 260 5 21 24 54 42 74 89 101 264
97 334 -8 l28 -42 3 -254 3 -253 65 0 64 0 0 238 c0 231 1 240 23 283 33 62
92 101 161 107 78 6 121 -4 162 -40 67 -59 69 -66 72 -341 l4 -247 59 0 60 0
-3 278 -3 277 -29 53 c-53 94 -143 142 -271 142 -99 0 -173 -28 -233 -87 l-44
-45 -30 36 c-50 61 -118 89 -223 93 -62 2 -102 -1 -130 -11z"/>
    <path d="M4474 931 c-96 -25 -204 -116 -247 -208 -19 -41 -22 -66 -22 -163 0
-134 15 -178 87 -256 86 -94 177 -129 317 -122 149 7 260 78 324 207 30 61 32
72 32 171 0 99 -2 110 -32 171 -39 79 -102 140 -181 177 -47 21 -74 27 -152
29 -52 1 -109 -2 -126 -6z m213 -128 c92 -38 153 -135 153 -243 -1 -153 -107
-260 -260 -260 -82 0 -132 22 -186 82 -49 53 -68 103 -68 178 0 30 6 73 13 94
16 45 81 120 124 142 62 33 156 36 224 7z"/>
    <path d="M190 870 l0 -60 219 -2 220 -3 -225 -259 -224 -259 0 -48 0 -49 315
0 315 0 0 60 0 60 -225 0 c-124 0 -225 2 -225 5 0 3 99 120 220 261 l220 255
0 49 0 50 -305 0 -305 0 0 -60z"/>
  </g>
</svg>
