<svg viewBox="0 0 129 141" fill="none" xmlns="http://www.w3.org/2000/svg">
  <path
    d="M127.801 61.8602C127.101 55.9602 124.601 51.3602 123.601 49.5602C124.301 37.3602 121.901 28.1602 116.401 22.2602C112.101 17.6602 107.101 16.3602 104.501 15.9602C100.601 7.7602 94.0011 6.16019 90.0011 6.56019C82.5011 -0.439807 75.501 -0.639807 70.901 0.560193C67.901 1.36019 65.5011 2.76019 64.0011 3.76019C62.5011 2.66019 60.201 1.26019 57.101 0.560193C52.501 -0.539807 45.5011 -0.439807 38.0011 6.56019C34.0011 6.16019 27.4011 7.7602 23.5011 15.9602C20.9011 16.3602 15.901 17.6602 11.601 22.2602C6.10104 28.1602 3.70105 37.3602 4.40105 49.5602C3.40105 51.2602 0.90105 55.9602 0.20105 61.8602C-0.59895 68.4602 0.601053 77.8602 11.0011 85.4602C9.80105 92.5602 10.901 104.76 22.301 110.86C21.801 113.46 21.501 117.96 23.801 121.76C25.601 124.76 28.601 126.76 32.701 127.66C34.801 130.86 41.901 140.76 50.801 140.76C50.901 140.76 50.9011 140.76 51.0011 140.76C55.8011 140.66 60.101 137.86 63.901 132.36C67.701 137.86 72.001 140.66 76.801 140.76C85.801 140.86 93.0011 130.86 95.1011 127.66C99.2011 126.76 102.201 124.76 104.001 121.76C106.301 117.96 106.001 113.46 105.501 110.86C116.801 104.86 118.001 92.6602 116.801 85.4602C127.401 77.8602 128.601 68.4602 127.801 61.8602ZM112.901 82.3602C112.001 82.9602 111.601 83.9602 111.901 84.9602C112.101 85.6602 115.801 101.26 101.901 107.16C100.701 107.66 100.101 108.96 100.501 110.16C100.501 110.26 102.201 115.46 99.901 119.16C98.701 121.16 96.501 122.46 93.301 122.96C92.601 123.06 92.0011 123.56 91.6011 124.16C89.7011 127.46 83.4011 135.86 77.1011 135.86H77.0011C73.2011 135.76 69.601 132.66 66.201 126.56C65.801 125.76 64.9011 125.26 64.0011 125.26C63.1011 125.26 62.301 125.76 61.901 126.56C58.601 132.66 54.901 135.86 51.101 135.86C44.801 135.96 38.4011 127.46 36.5011 124.16C36.1011 123.56 35.501 123.06 34.801 122.96C31.601 122.46 29.401 121.16 28.201 119.16C26.001 115.46 27.601 110.26 27.601 110.16C28.001 108.96 27.401 107.66 26.201 107.16C12.401 101.26 16.001 85.5602 16.201 84.9602C16.501 83.9602 16.001 82.9602 15.201 82.3602C-2.99895 70.2602 8.50105 52.2602 9.00105 51.5602C9.30105 51.0602 9.40105 50.5602 9.40105 50.0602C8.60105 38.9602 10.501 30.7602 15.201 25.7602C19.601 20.9602 25.001 20.7602 25.201 20.7602C26.201 20.7602 27.1011 20.1602 27.5011 19.2602C30.2011 12.4602 34.601 11.4602 36.901 11.4602C37.601 11.4602 38.201 11.5602 38.301 11.5602C39.101 11.7602 40.001 11.5602 40.601 10.9602C45.601 5.9602 50.701 4.06019 55.801 5.26019C59.701 6.16019 62.201 8.6602 62.301 8.6602C62.801 9.1602 63.4011 9.3602 64.0011 9.3602H64.1011C64.7011 9.3602 65.401 9.0602 65.801 8.6602C65.801 8.6602 68.3011 6.2602 72.1011 5.3602C77.3011 4.0602 82.4011 5.9602 87.5011 10.9602C88.1011 11.5602 89.001 11.7602 89.801 11.5602C90.501 11.3602 97.0011 10.1602 100.601 19.2602C101.001 20.1602 101.901 20.7602 102.801 20.7602C103.001 20.7602 108.401 20.8602 112.901 25.7602C117.501 30.7602 119.501 38.9602 118.701 50.0602C118.701 50.5602 118.801 51.1602 119.101 51.5602C119.101 51.5602 122.201 56.2602 123.001 62.4602C124.001 70.5602 120.601 77.2602 112.901 82.3602Z"
    fill="#020203"/>
  <path
    d="M105.101 17.4602C104.701 16.1602 103.301 15.4602 102.001 15.9602C86.8011 21.0602 86.701 33.6602 86.701 34.2602C86.701 35.5602 87.8011 36.6602 89.1011 36.6602C90.4011 36.6602 91.5011 35.5602 91.5011 34.2602C91.5011 33.8602 91.8011 24.5602 103.501 20.5602C104.801 20.1602 105.501 18.7602 105.101 17.4602Z"
    fill="#020203"/>
  <path
    d="M116.101 82.9602C115.301 81.8602 113.801 81.6602 112.701 82.4602C108.701 85.4602 105.101 86.5602 102.001 85.6602C96.5011 84.0602 93.7011 76.7602 93.6011 76.6602C93.1011 75.3602 91.7011 74.7602 90.5011 75.2602C89.2011 75.7602 88.6011 77.1602 89.1011 78.3602C89.2011 78.7602 92.7011 87.9602 100.601 90.2602C101.801 90.5602 103.001 90.7602 104.201 90.7602C107.801 90.7602 111.701 89.2602 115.601 86.2602C116.701 85.5602 116.901 83.9602 116.101 82.9602Z"
    fill="#020203"/>
  <path
    d="M74.901 84.9602C73.901 83.9602 72.401 83.9602 71.501 84.9602C70.501 85.9602 70.501 87.4602 71.501 88.3602C79.401 96.2602 77.801 103.96 77.701 104.26C77.401 105.56 78.201 106.86 79.501 107.16C79.701 107.16 79.901 107.26 80.101 107.26C81.201 107.26 82.201 106.56 82.501 105.46C82.401 105.06 84.801 94.9602 74.901 84.9602Z"
    fill="#020203"/>
  <path
    d="M112.701 62.0603C112.201 60.7603 110.801 60.1603 109.601 60.5603C109.101 60.7603 97.5011 64.7603 91.3011 56.5603C88.1011 52.2603 86.7011 48.6603 85.6011 45.6603C84.2011 42.0603 83.001 38.6603 78.701 38.2603C77.401 38.1603 76.2011 39.1603 76.1011 40.4603C76.0011 41.7603 77.0011 42.9603 78.3011 43.0603C79.3011 43.1603 79.7011 43.7603 81.0011 47.2603C82.2011 50.3603 83.7011 54.4603 87.4011 59.3603C91.7011 65.0603 97.6011 66.4603 102.501 66.4603C107.201 66.4603 111.001 65.1603 111.301 65.0603C112.501 64.7603 113.201 63.3603 112.701 62.0603Z"
    fill="#020203"/>
  <path
    d="M64.0011 4.46021C62.7011 4.46021 61.6011 5.5602 61.6011 6.8602V127.66C61.6011 128.96 62.7011 130.06 64.0011 130.06C65.3011 130.06 66.4011 128.96 66.4011 127.66V6.8602C66.5011 5.5602 65.4011 4.46021 64.0011 4.46021Z"
    fill="#020203"/>
  <path
    d="M81.9011 25.4603C81.9011 24.1603 80.8011 23.0603 79.4011 23.0603C78.1011 23.0603 77.0011 24.1603 77.0011 25.5603C77.0011 25.7603 77.1011 40.9603 69.5011 50.5603C68.7011 51.6603 68.8011 53.1603 69.9011 53.9603C70.3011 54.3603 70.9011 54.4603 71.4011 54.4603C72.1011 54.4603 72.8011 54.1603 73.3011 53.5603C82.0011 42.5603 81.9011 26.1603 81.9011 25.4603Z"
    fill="#020203"/>
  <path
    d="M86.801 100.16C76.001 100.16 71.001 114.86 70.801 115.46C70.401 116.76 71.101 118.16 72.301 118.56C72.601 118.66 72.8011 118.66 73.1011 118.66C74.1011 118.66 75.1011 118.06 75.4011 116.96C76.5011 113.66 80.801 104.96 86.801 104.96C88.101 104.96 89.201 103.86 89.201 102.56C89.301 101.26 88.201 100.16 86.801 100.16Z"
    fill="#020203"/>
  <path
    d="M89.6011 6.16018C88.5011 5.36018 87.001 5.56018 86.201 6.66018L80.3011 14.5602C79.5011 15.6602 79.7011 17.1602 80.8011 17.9602C81.2011 18.2602 81.7011 18.4602 82.3011 18.4602C83.0011 18.4602 83.8011 18.1602 84.3011 17.4602L90.201 9.56018C90.901 8.46018 90.6011 6.96018 89.6011 6.16018Z"
    fill="#020203"/>
  <path
    d="M39.601 21.9602C34.201 21.9602 29.801 26.3602 29.801 31.7602C29.801 37.1602 34.201 41.5602 39.601 41.5602C45.001 41.5602 49.401 37.1602 49.401 31.7602C49.401 26.3602 45.001 21.9602 39.601 21.9602Z"
    fill="#EA5357"/>
  <path
    d="M22.5011 53.6602C17.1011 53.6602 12.701 58.0602 12.701 63.4602C12.701 68.8602 17.1011 73.2601 22.5011 73.2601C27.9011 73.2601 32.301 68.8602 32.301 63.4602C32.301 58.0602 27.9011 53.6602 22.5011 53.6602Z"
    fill="#EA5357"/>
  <path
    d="M46.9011 75.6602C41.5011 75.6602 37.1011 80.0602 37.1011 85.4602C37.1011 90.8602 41.5011 95.2602 46.9011 95.2602C52.3011 95.2602 56.7011 90.8602 56.7011 85.4602C56.7011 79.9602 52.3011 75.6602 46.9011 75.6602Z"
    fill="#EA5357"/>
  <path
    d="M46.9011 102.46C41.5011 102.46 37.1011 106.86 37.1011 112.26C37.1011 117.66 41.5011 122.06 46.9011 122.06C52.3011 122.06 56.7011 117.66 56.7011 112.26C56.7011 106.86 52.3011 102.46 46.9011 102.46Z"
    fill="#EA5357"/>
  <path
    d="M39.601 36.5603C38.301 36.5603 37.201 37.6603 37.201 38.9603V63.3603C37.201 64.6603 38.301 65.7603 39.601 65.7603C40.901 65.7603 42.0011 64.6603 42.0011 63.3603V38.9603C42.1011 37.6603 41.001 36.5603 39.601 36.5603Z"
    fill="#020203"/>
  <path
    d="M46.9011 60.9602H29.8011C28.5011 60.9602 27.4011 62.0602 27.4011 63.3602C27.4011 64.6602 28.5011 65.7602 29.8011 65.7602H46.9011C48.2011 65.7602 49.3011 64.6602 49.3011 63.3602C49.4011 62.0602 48.3011 60.9602 46.9011 60.9602Z"
    fill="#020203"/>
  <path
    d="M46.901 60.9602C45.601 60.9602 44.501 62.0602 44.501 63.3602V77.9602C44.501 79.2602 45.601 80.3602 46.901 80.3602C48.201 80.3602 49.301 79.2602 49.301 77.9602V63.3602C49.401 62.0602 48.301 60.9602 46.901 60.9602Z"
    fill="#020203"/>
  <path
    d="M46.901 90.2603C45.601 90.2603 44.501 91.3602 44.501 92.6602V104.86C44.501 106.16 45.601 107.26 46.901 107.26C48.201 107.26 49.301 106.16 49.301 104.86V92.6602C49.401 91.3602 48.301 90.2603 46.901 90.2603Z"
    fill="#020203"/>
</svg>
