<?xml version="1.0" standalone="no"?>
<!DOCTYPE svg PUBLIC "-//W3C//DTD SVG 20010904//EN"
  "http://www.w3.org/TR/2001/REC-SVG-20010904/DTD/svg10.dtd">
<svg version="1.0" xmlns="http://www.w3.org/2000/svg"
     width="514.000000pt" height="111.000000pt" viewBox="0 0 514.000000 111.000000"
     preserveAspectRatio="xMidYMid meet">
  <metadata>
    Created by potrace 1.15, written by Peter Selinger 2001-2017
  </metadata>
  <g transform="translate(0.000000,111.000000) scale(0.100000,-0.100000)" stroke="none">
    <path d="M1183 942 c-143 -51 -239 -185 -250 -352 -12 -175 70 -327 215 -396
76 -36 219 -45 308 -19 66 18 136 56 171 92 22 21 23 25 9 50 -17 32 -63 83
-75 83 -5 0 -19 -8 -32 -19 -52 -40 -115 -64 -181 -69 -91 -6 -166 28 -209 96
-54 86 -66 82 245 82 231 0 275 2 286 15 9 10 11 41 8 98 -7 145 -86 270 -205
327 -67 33 -215 39 -290 12z m205 -147 c59 -25 96 -67 116 -132 l7 -23 -200 0
c-133 0 -201 4 -201 10 0 20 38 85 63 108 52 49 147 65 215 37z"/>
    <path d="M2113 946 c-22 -7 -55 -23 -71 -35 l-31 -21 -3 27 c-3 28 -3 28 -78
28 l-75 0 0 -385 0 -385 75 0 75 0 5 245 c6 278 11 301 83 348 35 23 51 27
118 27 87 0 118 -15 154 -76 18 -31 20 -57 25 -289 l5 -255 68 -3 c44 -2 74 2
84 9 23 20 14 524 -11 592 -22 59 -92 132 -154 160 -59 26 -206 34 -269 13z"/>
    <path d="M3033 946 c-22 -7 -55 -23 -71 -35 l-31 -21 -3 27 c-3 28 -3 28 -78
28 l-75 0 0 -385 0 -385 75 0 75 0 5 245 c6 278 11 301 83 348 35 23 51 27
118 27 87 0 118 -15 154 -76 18 -31 20 -57 25 -289 l5 -255 68 -3 c42 -2 74 2
83 9 11 9 14 56 14 246 0 210 2 238 19 271 35 69 93 102 178 102 74 0 128 -30
157 -85 19 -37 21 -62 26 -290 l5 -250 75 0 75 0 3 269 c3 324 -1 340 -87 426
-74 73 -135 94 -259 88 -98 -5 -161 -29 -219 -84 l-35 -33 -24 29 c-14 16 -50
41 -81 57 -47 23 -72 28 -147 30 -57 2 -107 -2 -133 -11z"/>
    <path d="M4453 945 c-103 -32 -194 -113 -241 -213 -24 -51 -27 -68 -27 -172 0
-110 2 -119 32 -181 40 -80 111 -150 191 -187 76 -35 205 -42 298 -17 168 45
284 203 284 385 0 180 -105 328 -269 380 -74 23 -203 26 -268 5z m245 -169
c43 -22 99 -90 111 -133 25 -90 8 -180 -48 -244 -47 -56 -100 -79 -181 -79
-54 0 -74 5 -117 30 -122 70 -157 243 -73 359 65 89 206 120 308 67z"/>
    <path d="M177 943 c-12 -11 -8 -128 5 -141 9 -9 69 -12 210 -12 l198 0 -215
-247 -215 -248 2 -60 3 -60 330 0 330 0 3 66 c2 46 -1 69 -11 77 -9 8 -83 13
-216 14 l-202 3 211 245 211 245 -3 60 -3 60 -316 3 c-173 1 -318 -1 -322 -5z"/>
  </g>
</svg>
