<svg viewBox="0 0 129 141" fill="none" xmlns="http://www.w3.org/2000/svg">
  <path
    d="M46.4 3.49995C43.5 6.39995 35.3 9.59996 35.3 9.59996L28 14.6L23.7 19.6L15.7 22.1L9.99997 33.5L8.19997 47.3999L5.49997 52.7L4.09998 58.7V64.7L5.49997 73.2999L9.29997 79.2999L14.4 84.2999L15 93.3999L16.2 101.6L20.9 106.1L25.2 109.5V117.1L27.9 122.9L34.1 126.3L38.8 130.2L44.9 135.9L52.2 138.6L57.9 135.9L62 130.8L64.4 125.3V6.79996L60.2 4.49995L54.9 1.69995L50.8 2.29996L46.4 3.49995Z"
    fill="#EA5357"/>
  <path
    d="M128.4 62.0001C127.7 56.1001 125.2 51.5001 124.2 49.7001C124.9 37.5001 122.5 28.3001 117 22.4001C112.7 17.8001 107.7 16.5001 105.1 16.1001C101.2 7.90009 94.6 6.30009 90.6 6.70009C83.1 -0.299914 76.1 -0.499914 71.5 0.700086C68.5 1.50009 66.1 2.90008 64.6 3.90008C63.1 2.80008 60.8 1.40009 57.7 0.700086C53.1 -0.399914 46.1 -0.299914 38.6 6.70009C34.6 6.30009 28 7.90009 24.1 16.1001C21.5 16.5001 16.5 17.8001 12.2 22.4001C6.69998 28.3001 4.29998 37.5001 4.99998 49.7001C3.99998 51.4001 1.49999 56.1001 0.799988 62.0001C-1.22935e-05 68.6001 1.19999 78.0001 11.6 85.6001C10.4 92.7001 11.5 104.9 22.9 111C22.4 113.6 22.1 118.1 24.4 121.9C26.2 124.9 29.2 126.9 33.3 127.8C35.4 131 42.5 140.9 51.4 140.9C51.5 140.9 51.5 140.9 51.6 140.9C56.4 140.8 60.7 138 64.5 132.5C68.3 138 72.6 140.8 77.4 140.9C86.4 141 93.6 131 95.7 127.8C99.8 126.9 102.8 124.9 104.6 121.9C106.9 118.1 106.6 113.6 106.1 111C117.4 105 118.6 92.8001 117.4 85.6001C128 78.0001 129.2 68.6001 128.4 62.0001ZM113.5 82.5001C112.6 83.1001 112.2 84.1001 112.5 85.1001C112.7 85.8001 116.4 101.4 102.5 107.3C101.3 107.8 100.7 109.1 101.1 110.3C101.1 110.4 102.8 115.6 100.5 119.3C99.3 121.3 97.1 122.6 93.9 123.1C93.2 123.2 92.6 123.7 92.2 124.3C90.3 127.6 84 136 77.7 136H77.6C73.8 135.9 70.2 132.8 66.8 126.7C66.4 125.9 65.5 125.4 64.6 125.4C63.7 125.4 62.9 125.9 62.5 126.7C59.2 132.8 55.5 136 51.7 136C45.4 136.1 39 127.6 37.1 124.3C36.7 123.7 36.1 123.2 35.4 123.1C32.2 122.6 30 121.3 28.8 119.3C26.6 115.6 28.2 110.4 28.2 110.3C28.6 109.1 28 107.8 26.8 107.3C13 101.4 16.6 85.7001 16.8 85.1001C17.1 84.1001 16.6 83.1001 15.8 82.5001C-2.40001 70.4001 9.09999 52.4001 9.59999 51.7001C9.89999 51.2001 9.99998 50.7001 9.99998 50.2001C9.19998 39.1001 11.1 30.9001 15.8 25.9001C20.2 21.1001 25.6 20.9001 25.8 20.9001C26.8 20.9001 27.7 20.3001 28.1 19.4001C30.8 12.6001 35.2 11.6001 37.5 11.6001C38.2 11.6001 38.8 11.7001 38.9 11.7001C39.7 11.9001 40.6 11.7001 41.2 11.1001C46.2 6.10009 51.3 4.20008 56.4 5.40008C60.3 6.30008 62.8 8.80009 62.9 8.80009C63.4 9.30009 64 9.50009 64.6 9.50009H64.7C65.3 9.50009 66 9.20009 66.4 8.80009C66.4 8.80009 68.9 6.40009 72.7 5.50009C77.9 4.20009 83 6.10009 88.1 11.1001C88.7 11.7001 89.6 11.9001 90.4 11.7001C91.1 11.5001 97.6 10.3001 101.2 19.4001C101.6 20.3001 102.5 20.9001 103.4 20.9001C103.6 20.9001 109 21.0001 113.5 25.9001C118.1 30.9001 120.1 39.1001 119.3 50.2001C119.3 50.7001 119.4 51.3001 119.7 51.7001C119.7 51.7001 122.8 56.4001 123.6 62.6001C124.6 70.7001 121.2 77.4001 113.5 82.5001Z"
    fill="#020203"/>
  <path
    d="M105.7 17.6001C105.3 16.3001 103.9 15.6001 102.6 16.1001C87.4 21.2001 87.3 33.8001 87.3 34.4001C87.3 35.7001 88.4 36.8001 89.7 36.8001C91 36.8001 92.1 35.7001 92.1 34.4001C92.1 34.0001 92.4 24.7001 104.1 20.7001C105.4 20.3001 106.1 18.9001 105.7 17.6001Z"
    fill="#020203"/>
  <path
    d="M116.7 83.1001C115.9 82.0001 114.4 81.8001 113.3 82.6001C109.3 85.6001 105.7 86.7001 102.6 85.8001C97.1 84.2001 94.3 76.9001 94.2 76.8001C93.7 75.5001 92.3 74.9001 91.1 75.4001C89.8 75.9001 89.2 77.3001 89.7 78.5001C89.8 78.9001 93.3 88.1001 101.2 90.4001C102.4 90.7001 103.6 90.9001 104.8 90.9001C108.4 90.9001 112.3 89.4001 116.2 86.4001C117.3 85.7001 117.5 84.1001 116.7 83.1001Z"
    fill="#020203"/>
  <path
    d="M75.5 85.1001C74.5 84.1001 73 84.1001 72.1 85.1001C71.1 86.1001 71.1 87.6001 72.1 88.5001C80 96.4001 78.4 104.1 78.3 104.4C78 105.7 78.8 107 80.1 107.3C80.3 107.3 80.5 107.4 80.7 107.4C81.8 107.4 82.8 106.7 83.1 105.6C83 105.2 85.4 95.1001 75.5 85.1001Z"
    fill="#020203"/>
  <path
    d="M113.3 62.2C112.8 60.9 111.4 60.3 110.2 60.7C109.7 60.9 98.1 64.9 91.9 56.7C88.7 52.4 87.3 48.8 86.2 45.8C84.8 42.2 83.6 38.8 79.3 38.4C78 38.3 76.8 39.3 76.7 40.6C76.6 41.9 77.6 43.1 78.9 43.2C79.9 43.3 80.3 43.9 81.6 47.4C82.8 50.5 84.3 54.6 88 59.5C92.3 65.2 98.2 66.6 103.1 66.6C107.8 66.6 111.6 65.3 111.9 65.2C113.1 64.9 113.8 63.5 113.3 62.2Z"
    fill="#020203"/>
  <path
    d="M64.6 4.6001C63.3 4.6001 62.2 5.70009 62.2 7.00009V127.8C62.2 129.1 63.3 130.2 64.6 130.2C65.9 130.2 67 129.1 67 127.8V7.00009C67.1 5.70009 66 4.6001 64.6 4.6001Z"
    fill="#020203"/>
  <path
    d="M82.5 25.6002C82.5 24.3002 81.4 23.2002 80 23.2002C78.7 23.2002 77.6 24.3002 77.6 25.7002C77.6 25.9002 77.7 41.1002 70.1 50.7002C69.3 51.8002 69.4 53.3002 70.5 54.1002C70.9 54.5002 71.5 54.6002 72 54.6002C72.7 54.6002 73.4 54.3002 73.9 53.7002C82.6 42.7002 82.5 26.3002 82.5 25.6002Z"
    fill="#020203"/>
  <path
    d="M87.4 100.3C76.6 100.3 71.6 115 71.4 115.6C71 116.9 71.7 118.3 72.9 118.7C73.2 118.8 73.4 118.8 73.7 118.8C74.7 118.8 75.7 118.2 76 117.1C77.1 113.8 81.4 105.1 87.4 105.1C88.7 105.1 89.8 104 89.8 102.7C89.9 101.4 88.8 100.3 87.4 100.3Z"
    fill="#020203"/>
  <path
    d="M90.2 6.30008C89.1 5.50008 87.6 5.70008 86.8 6.80008L80.9 14.7001C80.1 15.8001 80.3 17.3001 81.4 18.1001C81.8 18.4001 82.3 18.6001 82.9 18.6001C83.6 18.6001 84.4 18.3001 84.9 17.6001L90.8 9.70007C91.5 8.60007 91.2 7.10008 90.2 6.30008Z"
    fill="#020203"/>
  <path
    d="M40.2 22.1001C34.8 22.1001 30.4 26.5001 30.4 31.9001C30.4 37.3001 34.8 41.7001 40.2 41.7001C45.6 41.7001 50 37.3001 50 31.9001C50 26.5001 45.6 22.1001 40.2 22.1001ZM40.2 36.7001C37.5 36.7001 35.3 34.5001 35.3 31.8001C35.3 29.1001 37.5 26.9001 40.2 26.9001C42.9 26.9001 45.1 29.1001 45.1 31.8001C45.1 34.5001 42.9 36.7001 40.2 36.7001Z"
    fill="#020203"/>
  <path
    d="M23.1 53.8C17.7 53.8 13.3 58.2001 13.3 63.6001C13.3 69.0001 17.7 73.4 23.1 73.4C28.5 73.4 32.9 69.0001 32.9 63.6001C32.9 58.2001 28.5 53.8 23.1 53.8ZM23.1 68.4C20.4 68.4 18.2 66.2 18.2 63.5C18.2 60.8 20.4 58.6001 23.1 58.6001C25.8 58.6001 28 60.8 28 63.5C28 66.2 25.8 68.4 23.1 68.4Z"
    fill="#020203"/>
  <path
    d="M47.5 75.8C42.1 75.8 37.7 80.2001 37.7 85.6001C37.7 91.0001 42.1 95.4001 47.5 95.4001C52.9 95.4001 57.3 91.0001 57.3 85.6001C57.3 80.1001 52.9 75.8 47.5 75.8ZM47.5 90.4001C44.8 90.4001 42.6 88.2001 42.6 85.5001C42.6 82.8001 44.8 80.6001 47.5 80.6001C50.2 80.6001 52.3999 82.8001 52.3999 85.5001C52.3999 88.2001 50.2 90.4001 47.5 90.4001Z"
    fill="#020203"/>
  <path
    d="M47.5 102.6C42.1 102.6 37.7 107 37.7 112.4C37.7 117.8 42.1 122.2 47.5 122.2C52.9 122.2 57.3 117.8 57.3 112.4C57.3 107 52.9 102.6 47.5 102.6ZM47.5 117.2C44.8 117.2 42.6 115 42.6 112.3C42.6 109.6 44.8 107.4 47.5 107.4C50.2 107.4 52.3999 109.6 52.3999 112.3C52.3999 115 50.2 117.2 47.5 117.2Z"
    fill="#020203"/>
  <path
    d="M40.2 36.7002C38.9 36.7002 37.8 37.8002 37.8 39.1002V63.5002C37.8 64.8002 38.9 65.9002 40.2 65.9002C41.5 65.9002 42.6 64.8002 42.6 63.5002V39.1002C42.7 37.8002 41.6 36.7002 40.2 36.7002Z"
    fill="#020203"/>
  <path
    d="M47.5 61.1001H30.4C29.1 61.1001 28 62.2001 28 63.5001C28 64.8001 29.1 65.9001 30.4 65.9001H47.5C48.8 65.9001 49.9 64.8001 49.9 63.5001C50 62.2001 48.9 61.1001 47.5 61.1001Z"
    fill="#020203"/>
  <path
    d="M47.5 61.1001C46.2 61.1001 45.1 62.2001 45.1 63.5001V78.1001C45.1 79.4001 46.2 80.5001 47.5 80.5001C48.8 80.5001 49.9 79.4001 49.9 78.1001V63.5001C50 62.2001 48.9 61.1001 47.5 61.1001Z"
    fill="#020203"/>
  <path
    d="M47.5 90.4001C46.2 90.4001 45.1 91.5001 45.1 92.8001V105C45.1 106.3 46.2 107.4 47.5 107.4C48.8 107.4 49.9 106.3 49.9 105V92.8001C50 91.5001 48.9 90.4001 47.5 90.4001Z"
    fill="#020203"/>
</svg>
