<svg viewBox="0 0 100 100" fill="none" xmlns="http://www.w3.org/2000/svg">
  <path
    d="M89.7 33.2001C88.8 33.2001 88 33.9001 88 34.9001V93C88 94.8 86.5 96.3 84.7 96.3H6.69997C4.89997 96.3 3.39998 94.8 3.39998 93V15C3.39998 13.2 4.89997 11.7 6.69997 11.7H64.8C65.7 11.7 66.5 11 66.5 10C66.5 9.10005 65.8 8.30005 64.8 8.30005H6.69997C2.99997 8.30005 0.0999756 11.3 0.0999756 14.9V92.9C0.0999756 96.6 3.09997 99.5 6.69997 99.5H84.7C88.4 99.5 91.3 96.5 91.3 92.9V34.8C91.4 33.9 90.6 33.2001 89.7 33.2001Z"
    fill="#020203"/>
  <path
    d="M86.4 0C79.1 0 73.1 5.9 73.1 13.3C73.1 20.7 79 26.6 86.4 26.6C93.7 26.6 99.7 20.7 99.7 13.3C99.7 5.9 93.7 0 86.4 0Z"
    fill="#EA5357"/>
</svg>
