<svg viewBox="0 0 47 47" fill="none" xmlns="http://www.w3.org/2000/svg">
  <circle cx="23.5" cy="23.5" r="23.5" fill="#7633FF"/>
  <path
    d="M12.4152 18.2324C12.407 18.277 12.4024 18.3222 12.4009 18.3674V19.2955C12.4021 19.678 12.6396 20.02 12.998 20.1543V21.52C12.9996 21.9773 13.3592 22.3531 13.8158 22.3747V30.2645C13.3592 30.2863 12.9996 30.6621 12.998 31.1192V32.4808C12.6389 32.6188 12.4015 32.9633 12.4009 33.3477V34.2556C12.4009 34.4248 12.5384 34.5622 12.7077 34.5622H33.3903C33.5595 34.5622 33.6969 34.4248 33.6969 34.2556V33.3477C33.6963 32.9631 33.4589 32.6186 33.0999 32.4808V31.1111C33.0983 30.6539 32.7386 30.2781 32.2821 30.2565V22.3747C32.7386 22.3531 33.0983 21.9773 33.0999 21.52V20.1543C33.4581 20.02 33.6957 19.678 33.6969 19.2955V18.3735C33.6956 18.3283 33.6908 18.2831 33.6826 18.2385C33.8368 18.3068 34.0171 18.2373 34.0854 18.0831C34.1537 17.9291 34.0842 17.7488 33.9301 17.6803L23.19 12.0355C23.1004 11.9882 22.9933 11.9882 22.9037 12.0355L12.1638 17.6742C12.0139 17.7534 11.9565 17.9388 12.0354 18.0886C12.1076 18.2255 12.2704 18.2873 12.4152 18.2324ZM13.6114 20.6858V20.2135H17.1483V20.6818L13.6114 20.6858ZM21.4869 22.3768V30.2645C21.0302 30.2863 20.6707 30.6621 20.6691 31.1192V32.4236H17.7575V31.1192C17.7559 30.6621 17.3963 30.2863 16.9397 30.2645V22.3747C17.3963 22.3531 17.7559 21.9773 17.7575 21.52V20.2135H20.6649V21.5181C20.6656 21.9761 21.0255 22.3528 21.4828 22.3747L21.4869 22.3768ZM21.2824 20.6858V20.2135H24.8195V20.6818L21.2824 20.6858ZM29.1581 22.3768V30.2645C28.7015 30.2863 28.3418 30.6621 28.3401 31.1192V32.4236H25.4287V31.1192C25.4271 30.6621 25.0674 30.2863 24.6109 30.2645V22.3747C25.0674 22.3531 25.4271 21.9773 25.4287 21.52V20.2135H28.3361V21.5181C28.3367 21.9761 28.6965 22.3528 29.1539 22.3747L29.1581 22.3768ZM28.9536 20.6858V20.2135H32.4906V20.6818L28.9536 20.6858ZM32.4906 31.9555V32.4236H28.9495V31.9555H32.4906ZM24.8195 31.9555V32.4236H21.2784V31.9555H24.8195ZM21.7894 21.7674H21.5237C21.3881 21.7674 21.2784 21.6577 21.2784 21.5221V21.2992H24.8154V21.5221C24.8154 21.6577 24.7056 21.7674 24.5701 21.7674H21.7894ZM23.9997 22.3808V30.2605H22.0962V22.3808H23.9997ZM21.7894 30.8738H24.5701C24.7056 30.8738 24.8154 30.9836 24.8154 31.1192V31.3421H21.2784V31.1192C21.2784 30.9836 21.3881 30.8738 21.5237 30.8738H21.7894ZM17.1443 31.9555V32.4236H13.6072V31.9555H17.1443ZM13.6072 21.5282V21.2992H17.1443V21.5221C17.1443 21.6577 17.0346 21.7674 16.8988 21.7674H13.8464C13.7125 21.7642 13.606 21.654 13.6072 21.52V21.5282ZM16.3265 22.3869V30.2605H14.425V22.3808L16.3265 22.3869ZM13.6072 31.1254C13.6072 30.9897 13.7169 30.88 13.8525 30.88H16.8988C17.0346 30.88 17.1443 30.9897 17.1443 31.1254V31.3482H13.6072V31.1254ZM33.0835 33.3601V33.9611H13.0102V33.3601C13.0102 33.185 13.152 33.043 13.3271 33.043H32.7666C32.9392 33.043 33.0803 33.1813 33.0835 33.3538V33.3601ZM32.4866 31.1254V31.3482H28.9495V31.1254C28.9495 30.9897 29.0592 30.88 29.1948 30.88H32.2474C32.3782 30.8832 32.4833 30.9884 32.4866 31.1192V31.1254ZM29.7673 30.2666V22.3808H31.6707V30.2605L29.7673 30.2666ZM32.4866 21.5282C32.4866 21.6638 32.3768 21.7736 32.2413 21.7736H29.1969C29.0613 21.7736 28.9515 21.6638 28.9515 21.5282V21.2992H32.4885L32.4866 21.5282ZM23.0469 12.6488L32.1798 17.4493H13.9139L23.0469 12.6488ZM13.0102 18.3735C13.0102 18.2042 13.1476 18.0669 13.3168 18.0669H32.7769C32.9462 18.0669 33.0835 18.2042 33.0835 18.3735V19.3018C33.0835 19.471 32.9462 19.6084 32.7769 19.6084H13.3168C13.1476 19.6084 13.0102 19.471 13.0102 19.3018V18.3735Z"
    fill="white"/>
</svg>
