<svg viewBox="0 0 122 121" fill="none" xmlns="http://www.w3.org/2000/svg">
  <path
    d="M56.1 -1C59 -1 62 -1 64.9 -1C67.1 -0.7 69.4 -0.8 71.6 -0.4C80.5 1.2 88.7 4.6 96.2 9.9C103.5 15.1 109.5 21.5 113.9 29.3C117.9 36.2 120.6 43.6 121.5 51.6C121.6 52.8 121.6 54.1 121.8 55.4C121.8 58.4 121.8 61.4 121.8 64.4C121.5 66.3 121.6 68.3 121.2 70.3C119.2 81.3 114.7 91.1 107.4 99.6C99.7 108.7 90.1 114.9 78.7 118.5C74.4 119.8 70 120.8 65.4 120.7C65.2 120.7 65 120.7 64.8 120.8C61.9 120.8 59.1 120.8 56.2 120.8C53.5 120.5 50.7 120.4 48 119.8C38.1 117.6 29.1 113.3 21.4 106.7C11.7 98.4 5.1 88 1.7 75.6C0.7 72.1 0.1 68.6 0.1 64.9C0.1 64.7 0.1 64.5 0 64.3C0 61.2 0 58.1 0 55C0.3 53.1 0.2 51.2 0.6 49.3C2.6 38.3 7.1 28.6 14.4 20.1C20.8 12.6 28.6 6.9 37.7 3.1C42.4 1.2 47.2 -0.2 52.2 -0.8C53.5 -0.8 54.8 -0.7 56.1 -1Z"
    fill="#F1F2FA"/>
  <path
    d="M99.5 47.4C99 48.2 98.3 48.5 97.3 48.5C93.1 48.5 89 48.5 84.8 48.5C84.3 48.5 84 48.6 83.6 49.1C81.7 51.6 79.3 53.4 76.1 54C75.5 54.1 74.9 54.2 74.4 54.1C73.7 54 73.2 54.3 72.6 54.8C67.9 59.5 63.2 64.2 58.5 68.9C57.3 70.1 56.6 70.1 55.5 68.9C46.3 59.7 37.2 50.6 28 41.4C27.9 41.3 27.8 41.2 27.7 41.1C26.6 40 26.6 39.4 27.7 38.3C29.9 36.1 32.1 33.9 34.2 31.7C37.4 28.5 40.6 25.4 43.7 22.2C44 21.9 44.3 21.6 44.6 21.4C44.9 21.4 45.2 21.4 45.5 21.4C45.8 21.7 46.1 21.9 46.4 22.2C47.9 23.6 49.3 25.1 50.8 26.6C51.1 26.9 51.4 27 51.8 26.9C53.7 26.2 55.6 25.6 57.5 24.8C60.4 23.6 63.4 23.4 66.3 24.5C68.8 25.5 71.2 26.7 73.6 27.9C75.3 28.7 76.9 29.7 78.6 30.6C79.5 31.1 80.6 31.3 81.6 31.2C81.9 29.6 82.2 29.3 83.7 29.3C84.6 29.3 85.5 29.2 86.3 29.3C87.1 29.4 87.3 29.1 87.3 28.3C87.3 27 87.8 26.5 89.1 26.5C91.8 26.5 94.4 26.5 97.1 26.5C98 26.5 98.8 26.7 99.2 27.6C99.5 34.1 99.5 40.8 99.5 47.4ZM53.5 29.3C54.8 30.5 56.1 31.6 57.2 32.9C58.5 34.4 60.1 35.3 62.1 35.9C64.7 36.6 67.2 37.5 69.8 38.3C70.8 38.6 71.3 39.4 71 40.3C70.7 41.1 69.9 41.5 68.9 41.2C67.6 40.8 66.4 40.4 65.1 40C62 39 58.9 38 55.8 37.1C54.4 36.7 53 37.2 52.3 38.4C51.6 39.6 51.7 41.1 52.8 42C53.4 42.5 54.1 42.9 54.8 43.2C58.6 44.5 62.4 45.8 66.2 47.1C66.6 47.2 67 47.5 67.2 47.8C69.2 50.4 72 51.5 75.1 51.2C78.1 50.9 80.1 49 81.7 46.6C81.8 46.5 81.8 46.3 81.8 46.1C81.8 42.4 81.8 38.6 81.8 34.9C81.8 34.5 81.7 34.3 81.2 34.3C79.4 34.2 77.6 33.6 76 32.7C72.8 31 69.6 29.3 66.4 27.7C64.3 26.6 61.9 26.5 59.7 27.2C57.7 27.7 55.7 28.5 53.5 29.3ZM36.1 45.2C41.2 50.3 46.3 55.4 51.4 60.5C55 58.2 58.6 58.1 62.2 60.4C62.3 60.5 62.6 60.5 62.7 60.4C63.8 59.3 64.9 58.3 66 57.2C64.5 54.9 63.9 52.6 64.3 50C64.3 49.8 64.1 49.5 63.9 49.4C62.8 49 61.7 48.6 60.6 48.2C60.2 48.1 59.8 47.9 59.4 47.8C59.3 48.1 59.2 48.3 59.1 48.6C57.7 52.4 53.9 54.6 50 54.1C46.1 53.6 43 50.5 42.6 46.7C42.2 42.7 44.3 39 48.1 37.6C49 37.3 49.8 36.8 50.4 36C51.1 35 52.2 34.4 53.4 34C53.6 33.9 53.8 33.9 54.2 33.7C53.1 32.7 52.2 31.8 51.3 30.9C51 30.6 50.7 30.6 50.3 30.8C49.7 31.2 49 31.5 48.3 31.8C45.4 32.7 42.7 32.4 40.1 30.8C39.9 30.7 39.5 30.6 39.4 30.7C38.3 31.7 37.2 32.8 36.1 33.8C38.4 37.8 38.4 41.5 36.1 45.2ZM90.5 29.5C90.5 34.9 90.5 40.2 90.5 45.4C92.5 45.4 94.5 45.4 96.4 45.4C96.4 40.1 96.4 34.8 96.4 29.5C94.4 29.5 92.5 29.5 90.5 29.5ZM48.9 40.5C46.5 41.3 45 44.2 45.5 46.8C46.1 49.5 48.7 51.4 51.4 51.2C53.9 51 56.3 48.9 56.3 46.7C53 45.7 49.7 44.7 48.9 40.5ZM84.8 32.2C84.8 36.7 84.8 41 84.8 45.4C85.7 45.4 86.6 45.4 87.5 45.4C87.5 45 87.5 44.7 87.5 44.4C87.5 40.6 87.5 36.8 87.5 33C87.5 32.7 87.6 32.2 87 32.2C86.4 32.2 85.6 32.2 84.8 32.2ZM60.3 62.8C58.6 61.4 55 61.5 53.7 62.7C54.8 63.8 55.9 64.9 57 66.1C58 65.1 59.1 64 60.1 63C60.2 62.9 60.3 62.8 60.3 62.8ZM41.8 28.4C43.5 29.7 46.8 29.7 48.4 28.4C47.3 27.3 46.2 26.1 45.1 25.1C44 26.2 42.9 27.3 41.8 28.4ZM33.9 36.3C32.8 37.4 31.6 38.5 30.6 39.5C31.7 40.6 32.8 41.8 33.9 42.9C35.2 41 35.2 37.8 33.9 36.3ZM69.8 53.3C68.9 52.8 68.1 52.4 67.3 51.9C67.2 51.9 67.2 52 67.1 52C67.4 53 67.7 53.9 68.1 55C68.7 54.3 69.3 53.8 69.8 53.3Z"
    fill="#7633FF"/>
  <path
    d="M22.2998 74.8001C22.6998 73.9001 23.3998 73.7001 24.3998 73.7001C28.4998 73.7001 32.5998 73.7001 36.7998 73.7001C37.4998 73.7001 37.9998 73.5001 38.3998 72.9001C40.2998 70.4001 42.6998 68.6001 45.8998 68.2001C49.7998 67.7001 53.1998 68.8001 55.9998 71.6001C56.5998 72.2001 57.0998 72.6001 57.8998 72.8001C61.2998 73.9001 64.5998 75.0001 67.8998 76.2001C69.8998 76.9001 71.4998 78.1001 72.3998 80.1001C72.5998 80.5001 72.7998 80.5001 73.0998 80.4001C76.5998 79.4001 80.0998 78.5001 83.5998 77.5001C85.0998 77.1001 86.5998 76.9001 87.9998 77.5001C91.9998 78.9001 93.2998 83.7001 90.4998 87.0001C89.5998 88.0001 88.4998 88.8001 87.1998 89.3001C79.6998 92.0001 72.1998 94.7001 64.6998 97.3001C63.3998 97.8001 61.9998 98.1001 60.6998 98.5001C59.7998 98.5001 58.9998 98.5001 58.0998 98.5001C57.8998 98.4001 57.7998 98.4001 57.5998 98.3001C56.2998 97.9001 54.8998 97.7001 53.6998 97.1001C50.3998 95.5001 47.1998 93.8001 43.9998 92.1001C42.6998 91.4001 41.3998 91.0001 39.9998 91.0001C39.6998 92.7001 39.3998 92.9001 37.6998 92.9001C36.7998 92.9001 35.9998 92.9001 35.0998 92.9001C34.3998 92.9001 34.1998 93.0001 34.1998 93.8001C34.1998 95.3001 33.7998 95.7001 32.2998 95.7001C29.5998 95.7001 26.9998 95.7001 24.2998 95.7001C23.3998 95.7001 22.6998 95.4001 22.2998 94.6001C22.2998 88.0001 22.2998 81.4001 22.2998 74.8001ZM39.9998 87.9001C42.5998 88.0001 44.7998 89.0001 46.9998 90.2001C49.3998 91.6001 51.8998 92.8001 54.3998 94.1001C57.3998 95.7001 60.3998 95.8001 63.5998 94.6001C71.0998 91.8001 78.6998 89.2001 86.2998 86.4001C87.0998 86.1001 87.7998 85.5001 88.3998 84.9001C89.0998 84.3001 89.2998 83.4001 89.0998 82.5001C88.6998 80.6001 87.0998 79.7001 84.9998 80.3001C81.0998 81.3001 77.1998 82.4001 73.3998 83.5001C73.1998 83.6001 72.8998 83.8001 72.7998 84.1001C71.4998 87.5001 68.3998 89.0001 64.9998 88.0001C62.2998 87.2001 59.5998 86.3001 56.8998 85.4001C55.1998 84.9001 53.4998 84.3001 51.7998 83.7001C51.0998 83.5001 50.7998 82.8001 50.8998 82.1001C50.9998 81.4001 51.4998 81.0001 52.0998 80.9001C52.4998 80.9001 52.7998 81.0001 53.1998 81.1001C57.3998 82.4001 61.6998 83.8001 65.8998 85.1001C67.3998 85.6001 68.7998 85.0001 69.5998 83.8001C70.2998 82.5001 69.9998 81.0001 68.7998 80.0001C68.3998 79.6001 67.7998 79.3001 67.2998 79.2001C64.0998 78.1001 60.8998 77.0001 57.5998 75.9001C56.0998 75.4001 54.7998 74.8001 53.6998 73.6001C51.5998 71.4001 48.7998 70.7001 45.7998 71.3001C43.3998 71.8001 41.6998 73.3001 40.3998 75.2001C40.0998 75.6001 39.9998 76.1001 39.9998 76.6001C39.9998 79.9001 39.9998 83.1001 39.9998 86.4001C39.9998 86.8001 39.9998 87.4001 39.9998 87.9001ZM25.2998 92.7001C26.5998 92.7001 27.8998 92.7001 29.0998 92.7001C31.2998 92.7001 31.2998 92.7001 31.2998 90.5001C31.2998 86.1001 31.2998 81.8001 31.2998 77.4001C31.2998 76.8001 31.0998 76.6001 30.4998 76.6001C29.5998 76.6001 28.7998 76.6001 27.8998 76.6001C26.9998 76.6001 26.1998 76.6001 25.2998 76.6001C25.2998 82.0001 25.2998 87.3001 25.2998 92.7001ZM36.9998 89.9001C36.9998 89.6001 36.9998 89.3001 36.9998 89.0001C36.9998 85.5001 36.9998 82.1001 36.9998 78.6001C36.9998 76.6001 36.9998 76.7001 34.9998 76.6001C34.2998 76.6001 34.1998 76.8001 34.1998 77.4001C34.1998 81.3001 34.1998 85.1001 34.1998 89.0001C34.1998 89.3001 34.1998 89.5001 34.2998 89.8001C35.1998 89.9001 36.0998 89.9001 36.9998 89.9001Z"
    fill="#7633FF"/>
  <path
    d="M69.8 53.3C69.2 53.9 68.7 54.4 68 55C67.7 54 67.3 53 67 52C67.1 52 67.1 51.9 67.2 51.9C68.1 52.3 68.9 52.8 69.8 53.3Z"
    fill="#7633FF"/>
  <path
    d="M76.4 41.4C76.4 42.2 75.8 42.9 75 42.9C74.2 42.9 73.5 42.2 73.5 41.4C73.5 40.6 74.1 40 74.9 39.9C75.7 40 76.4 40.6 76.4 41.4Z"
    fill="#7633FF"/>
  <path
    d="M46.7998 79.2001C47.5998 79.2001 48.2998 79.9001 48.2998 80.7001C48.2998 81.5001 47.5998 82.2001 46.7998 82.2001C45.9998 82.2001 45.2998 81.5001 45.2998 80.7001C45.3998 79.9001 45.9998 79.2001 46.7998 79.2001Z"
    fill="#7633FF"/>
</svg>
