<svg viewBox="0 0 122 122" fill="none" xmlns="http://www.w3.org/2000/svg">
  <path
    d="M56.1 0C59 0 62 0 64.9 0C67.1 0.3 69.4 0.2 71.6 0.6C80.5 2.2 88.7 5.6 96.2 10.9C103.5 16.1 109.5 22.5 113.9 30.3C117.9 37.2 120.6 44.6 121.5 52.6C121.6 53.8 121.6 55.1 121.8 56.4C121.8 59.4 121.8 62.4 121.8 65.4C121.5 67.3 121.6 69.3 121.2 71.3C119.2 82.3 114.7 92.1 107.4 100.6C99.7 109.7 90.1 115.9 78.7 119.5C74.4 120.8 70 121.8 65.4 121.7C65.2 121.7 65 121.7 64.8 121.8C61.9 121.8 59.1 121.8 56.2 121.8C53.5 121.5 50.7 121.4 48 120.8C38.1 118.6 29.1 114.3 21.4 107.7C11.7 99.4 5.1 89 1.7 76.6C0.7 73.1 0.1 69.6 0.1 65.9C0.1 65.7 0.1 65.5 0 65.3C0 62.2 0 59.1 0 56C0.3 54.1 0.2 52.2 0.6 50.3C2.6 39.3 7.1 29.6 14.4 21.1C20.8 13.6 28.6 7.9 37.7 4.1C42.4 2.2 47.2 0.8 52.2 0.2C53.5 0.2 54.8 0.3 56.1 0Z"
    fill="#F1F2FA"/>
  <path
    d="M53.3001 77.1999C53.3001 73.7999 53.3001 70.3999 53.3001 66.9999C53.3001 66.0999 53.1001 65.7999 52.1001 66.0999C49.1001 66.8999 46.0001 67.5999 43.0001 68.3999C40.7001 68.9999 38.7001 67.8999 38.1001 65.6999C37.6001 63.5999 38.9001 61.5999 41.2001 60.9999C44.9001 60.0999 48.6001 59.0999 52.4001 58.1999C53.1001 57.9999 53.3001 57.6999 53.3001 56.9999C53.3001 55.1999 53.3001 53.3999 53.3001 51.5999C53.3001 50.7999 53.1001 50.4999 52.3001 50.7999C49.2001 51.5999 46.2001 52.2999 43.1001 53.0999C40.8001 53.6999 38.8001 52.5999 38.2001 50.3999C37.6001 48.2999 39.0001 46.2999 41.3001 45.6999C45.0001 44.7999 48.7001 43.7999 52.5001 42.8999C53.2001 42.6999 53.4001 42.3999 53.4001 41.6999C53.4001 39.2999 53.4001 36.8999 53.4001 34.3999C53.4001 31.9999 55.0001 30.2999 57.4001 30.3999C59.3001 30.3999 61.0001 32.0999 61.0001 34.1999C61.0001 35.9999 61.0001 37.7999 61.0001 39.6999C61.0001 40.5999 61.2001 40.7999 62.1001 40.4999C65.2001 39.6999 68.2001 38.9999 71.3001 38.1999C73.1001 37.7999 74.7001 38.2999 75.5001 39.6999C76.5001 41.2999 76.4001 42.9999 75.2001 44.3999C74.6001 45.1999 73.7001 45.3999 72.8001 45.5999C69.1001 46.4999 65.5001 47.4999 61.8001 48.3999C61.1001 48.5999 60.9001 48.7999 60.9001 49.4999C60.9001 51.2999 60.9001 53.0999 60.9001 54.8999C60.9001 55.6999 61.0001 55.9999 62.0001 55.7999C65.0001 54.9999 68.1001 54.2999 71.2001 53.4999C73.0001 53.0999 74.7001 53.6999 75.6001 54.9999C76.5001 56.3999 76.3001 58.2999 75.2001 59.5999C74.6001 60.3999 73.7001 60.5999 72.8001 60.7999C69.2001 61.6999 65.5001 62.5999 61.9001 63.4999C61.2001 63.6999 60.9001 63.8999 60.9001 64.6999C60.9001 70.5999 60.9001 76.5999 60.9001 82.4999C60.9001 83.2999 61.1001 83.5999 62.0001 83.5999C66.8001 83.2999 71.3001 81.8999 75.3001 79.2999C79.0001 76.8999 82.0001 73.6999 84.4001 69.9999C85.6001 68.1999 87.9001 67.7999 89.7001 69.0999C91.5001 70.2999 91.8001 72.4999 90.5001 74.3999C87.0001 79.8999 82.4001 84.1999 76.6001 87.2999C72.0001 89.6999 67.2001 91.0999 62.0001 91.2999C60.3001 91.3999 58.7001 91.2999 57.0001 91.1999C54.6001 91.1999 53.2001 89.3999 53.2001 87.2999C53.3001 83.9999 53.3001 80.5999 53.3001 77.1999Z"
    fill="#7633FF"/>
</svg>
