<svg viewBox="0 0 47 47" fill="none" xmlns="http://www.w3.org/2000/svg">
  <circle cx="23.5" cy="23.5" r="23.5" fill="#7633FF"/>
  <path
    d="M12.5 23.5372H8.0957L13.6839 29.1225L19.2727 23.5372H14.5C14.5134 18.9167 18.8395 14.0581 23.4625 14.0442C24.8235 14.0701 26.787 14.8823 28 15.5L29.4686 14.0442C27.6404 12.9868 25.574 12.4099 23.4625 12.3682C17.2976 12.385 12.5173 17.3755 12.5 23.5372ZM32.5 23.5C32.4866 28.1205 28.123 32.9861 23.5 33C22.1391 32.9741 20.213 32.1177 19 31.5L17.4565 33.0303C19.2847 34.0876 21.351 34.6645 23.4625 34.7063C29.627 34.6885 34.6203 29.6984 34.6385 23.5372H38.8294L33.2411 17.952L27.6524 23.5372L32.5 23.5Z"
    fill="white"/>
</svg>
