<svg viewBox="0 0 87 87" fill="none" xmlns="http://www.w3.org/2000/svg">
  <path
    d="M22.2 43.8999C34.1 43.8999 43.7 34.1999 43.7 22.3999C43.7 10.5999 34 0.899902 22.2 0.899902C10.4 0.899902 0.700012 10.5999 0.700012 22.3999C0.700012 34.1999 10.3 43.8999 22.2 43.8999ZM22.2 4.3999C32.1 4.3999 40.1 12.4999 40.1 22.2999C40.1 32.0999 32.1 40.1999 22.2 40.1999C12.3 40.1999 4.29999 32.0999 4.29999 22.2999C4.29999 12.4999 12.3 4.3999 22.2 4.3999Z"
    fill="#020203"/>
  <path
    d="M65.2 43.8999C53.3 43.8999 43.7 53.5999 43.7 65.3999C43.7 77.1999 53.4 86.9999 65.2 86.9999C77.1 86.9999 86.7 77.2999 86.7 65.4999C86.7 53.6999 77.1 43.8999 65.2 43.8999ZM65.2 83.3999C55.3 83.3999 47.3 75.3999 47.3 65.4999C47.3 55.5999 55.3 47.5999 65.2 47.5999C75.1 47.5999 83.1 55.5999 83.1 65.4999C83.2 75.3999 75.1 83.3999 65.2 83.3999Z"
    fill="#020203"/>
  <path
    d="M53.2 11.1C53.6 11.5 54 11.6 54.5 11.6C55 11.6 55.4 11.4 55.8 11.1C56.5 10.4 56.5 9.3 55.8 8.6L55.3 8.1C68.5 8.5 79.2 19.2 79.6 32.4L79.1 31.9C78.4 31.2 77.3 31.2 76.6 31.9C75.9 32.6 75.9 33.7 76.6 34.4L80.2 38C80.6 38.4 81 38.5 81.5 38.5C82 38.5 82.4 38.3 82.8 38L86.4 34.4C87.1 33.7 87.1 32.6 86.4 31.9C85.7 31.2 84.6 31.2 83.9 31.9L83.3 32.5C82.9 17.2 70.6 4.9 55.3 4.5L55.9 3.9C56.6 3.2 56.6 2.1 55.9 1.4C55.2 0.7 54.1 0.7 53.4 1.4L49.8 5C49.1 5.7 49.1 6.8 49.8 7.5L53.2 11.1Z"
    fill="#EA5357"/>
  <path
    d="M34.2 76.8C33.5 76.1 32.4 76.1 31.7 76.8C31 77.5 31 78.6 31.7 79.3L32.2 79.8C19 79.4 8.3 68.7 7.9 55.5L8.4 56C9.1 56.7 10.2 56.7 10.9 56C11.6 55.3 11.6 54.2 10.9 53.5L7.29996 49.9C6.59996 49.2 5.39996 49.2 4.79996 49.9L1.19999 53.5C0.499988 54.2 0.499988 55.3 1.19999 56C1.59999 56.4 1.99998 56.5 2.49998 56.5C2.99998 56.5 3.39996 56.3 3.79996 56L4.4 55.4C4.8 70.7 17.1 83 32.4 83.4L31.8 84C31.1 84.7 31.1 85.8 31.8 86.5C32.2 86.9 32.6 87 33.1 87C33.6 87 34 86.8 34.4 86.5L38 82.9C38.7 82.2 38.7 81.1 38 80.4L34.2 76.8Z"
    fill="#EA5357"/>
  <path
    d="M18.1 31.2C19.7 32.4 21.5 33 23.6 33C26.6 33 29 31.8999 30.9 29.5999L28.8 27C27.9 27.9 27.1 28.5 26.4 28.9C25.6 29.3 24.7 29.5 23.7 29.5C21.5 29.5 19.9 28.5 18.9 26.4H25.7V23.7999H18.1C18 23.3999 18 22.9 18 22.4C18 21.9 18 21.5999 18 21.2999H25.7V18.7H18.6C19.1 17.6 19.7 16.7 20.7 16.1C21.6 15.5 22.7 15.2 23.8 15.2C24.9 15.2 25.9 15.3999 26.7 15.7999C27.5 16.1999 28.3 16.7999 29.2 17.7999L31.3 15.1C29.5 12.8 27 11.7 23.8 11.7C21.7 11.7 19.8 12.3 18.1 13.6C16.4 14.9 15.3 16.6 14.6 18.7H11.5V21.2999H14.1C14.1 21.4999 14.1 21.8999 14.1 22.2999C14.1 22.7999 14.1 23.3 14.2 23.7H11.5V26.2999H14.7C15.3 28.3999 16.5 30 18.1 31.2Z"
    fill="#020203"/>
  <path
    d="M66.8 63.2H66.7V56.9C68.4 57.1 70 57.8 71.5 58.8L73.7 55.7C71.5 54.2 69.2 53.4 66.7 53.2V51.5H64.6V53.2C62.4 53.3 60.7 54 59.3 55.2C57.9 56.4 57.3 58 57.3 59.9C57.3 61.8 57.9 63.3 59.1 64.3C60.3 65.3 62.1 66.1 64.6 66.7V73.2C62.6 72.9 60.7 71.9 58.8 70.3L56.4 73.2C58.8 75.3 61.6 76.5 64.6 76.9V79.3H66.7V76.9C69 76.8 70.8 76.1 72.2 74.9C73.6 73.7 74.3 72.1 74.3 70.1C74.3 68.1 73.7 66.7 72.5 65.6C71.2 64.7 69.3 63.8 66.8 63.2ZM64.5 62.6C63.2 62.2 62.4 61.8 62 61.3C61.6 60.9 61.3 60.3 61.3 59.5C61.3 58.8 61.6 58.1 62.2 57.6C62.8 57.1 63.6 56.8 64.6 56.7V62.6H64.5ZM69.2 72.4C68.6 72.9 67.7 73.2 66.7 73.3V67.3C68 67.7 69 68.1 69.4 68.6C69.9 69.1 70.1 69.7 70.1 70.5C70.1 71.2 69.8 71.9 69.2 72.4Z"
    fill="#020203"/>
</svg>
