<svg viewBox="0 0 92 93" fill="none" xmlns="http://www.w3.org/2000/svg">
  <path
    d="M40.3 55.3999C40.7 55.7999 41.1 55.8999 41.6 55.8999C42.1 55.8999 42.5 55.6999 42.9 55.3999L58.2 40.0999C58.9 39.3999 58.9 38.1999 58.2 37.4999C57.5 36.7999 56.3 36.7999 55.6 37.4999L41.6 51.4999L35.7 45.5999C35 44.8999 33.8 44.8999 33.1 45.5999C32.4 46.2999 32.4 47.4999 33.1 48.1999L40.3 55.3999Z"
    fill="#EA5357"/>
  <path
    d="M2.8 84.5999C1.4 85.2999 0.600004 86.7999 0.900004 88.2999C1.1 89.7999 2.3 90.9999 3.9 91.2999C5 91.4999 6.30001 91.5999 7.50001 91.5999C10.9 91.5999 17.3 90.8999 23.7 86.3999C30.4 90.0999 38 92.0999 45.7 92.0999C57.9 92.0999 69.3 87.3999 78 78.6999C95.8 60.8999 95.8 31.9999 78 14.1999C69.4 5.5999 57.9 0.899902 45.7 0.899902C33.5 0.899902 22.1 5.5999 13.4 14.2999C-3.3 30.9999 -4.39998 57.8999 10.7 75.8999C8.60002 80.0999 5.9 83.0999 2.8 84.5999ZM16 16.7999C23.9 8.8999 34.4 4.4999 45.7 4.4999C56.9 4.4999 67.4 8.8999 75.4 16.7999C91.7 33.0999 91.7 59.7999 75.4 76.0999C67.5 83.9999 57 88.3999 45.7 88.3999C38.2 88.3999 30.9 86.3999 24.5 82.5999C24.2 82.3999 23.9 82.2999 23.6 82.2999C23.2 82.2999 22.8 82.3999 22.5 82.6999C16.7 87.1999 10.7 87.8999 7.60002 87.8999C6.70002 87.8999 5.80001 87.7999 5.00001 87.6999C9.00001 85.5999 12.3 81.6999 14.7 76.0999C15 75.3999 14.9 74.6999 14.4 74.0999C-0.399997 57.5999 0.400009 32.3999 16 16.7999Z"
    fill="#2D3034"/>
</svg>
