<svg viewBox="0 0 47 47" fill="none" xmlns="http://www.w3.org/2000/svg">
  <circle cx="23.5" cy="23.5" r="23.5" fill="#7633FF"/>
  <path
    d="M35.5434 30.598C35.5434 30.2496 35.2616 29.9678 34.9132 29.9678H13.4605L17.2315 26.1968C17.4775 25.9509 17.4775 25.5564 17.2315 25.3104C16.9856 25.0645 16.5911 25.0645 16.3451 25.3104L11.5033 30.1523C11.2574 30.3982 11.2574 30.7927 11.5033 31.0387L16.3451 35.8805C16.4681 36.0035 16.6269 36.0649 16.7909 36.0649C16.9548 36.0649 17.1137 36.0035 17.2366 35.8805C17.4826 35.6345 17.4826 35.24 17.2366 34.9941L13.4657 31.2231H34.9234C35.2616 31.2231 35.5434 30.9464 35.5434 30.598Z"
    fill="white"/>
  <path
    d="M35.3584 16.0212L30.5166 11.1845C30.2707 10.9385 29.8762 10.9385 29.6302 11.1845C29.3843 11.4304 29.3843 11.8249 29.6302 12.0708L33.4012 15.8418H11.9434C11.595 15.8418 11.3132 16.1236 11.3132 16.472C11.3132 16.8204 11.595 17.1022 11.9434 17.1022H33.4012L29.6302 20.863C29.3843 21.1089 29.3843 21.5034 29.6302 21.7494C29.7532 21.8724 29.912 21.9338 30.076 21.9338C30.2399 21.9338 30.3988 21.8724 30.5217 21.7494L35.3636 16.9075C35.6044 16.6667 35.6044 16.2671 35.3584 16.0212Z"
    fill="white"/>
</svg>
