<svg viewBox="0 0 99 101" fill="none" xmlns="http://www.w3.org/2000/svg">
  <path
    d="M96.6 35.0001C88.5 9.00008 60.6999 -5.49992 34.6999 2.60008C8.69994 10.7001 -5.79996 38.5001 2.30004 64.5001L5.49999 63.5001C-2.10001 39.3001 11.4999 13.4001 35.6999 5.80008C47.3999 2.10008 59.9 3.20008 70.8 8.90008C81.7 14.6001 89.7 24.2001 93.4 35.9001C97.1 47.6001 96 60.1001 90.3 71.0001C84.6 81.9001 75 89.9001 63.3 93.6001C43.7 99.7001 22.1 92.0001 10.9 74.7001L8.09997 76.5001C17.4 90.8001 33.2 99.0001 49.6 99.0001C54.5 99.0001 59.4 98.3001 64.3 96.8001C76.9 92.9001 87.2 84.3001 93.3 72.6001C99.3 60.9001 100.5 47.5001 96.6 35.0001Z"
    fill="#020203"/>
  <path
    d="M39.6999 23.7001L40.6999 20.5001L24 15.5001C23.4 15.3001 22.8 15.5001 22.3 15.9001L19 19.2001C18.6 19.6001 18.4 20.1001 18.5 20.7001C18.6 21.2001 19 21.7001 19.5 21.9001L34.5999 28.6001L36 25.5001L23.1999 19.8001L24.0999 18.9001L39.6999 23.7001Z"
    fill="#EA5357"/>
  <path
    d="M55.3 13.8001C55.3 12.9001 54.6 12.1001 53.6 12.1001C49.9 12.1001 46.5 13.5001 43.9 16.1001L29.7 30.3001L23.9 28.9001C23.3 28.8001 22.7 28.9001 22.3 29.3001L19 32.6001C18.6 33.0001 18.5 33.5001 18.5 34.0001C18.6 34.5001 18.9 35.0001 19.3 35.2001L27.3 40.0001L32.1 48.0001C32.4 48.4001 32.8 48.7001 33.3 48.8001C33.4 48.8001 33.4 48.8001 33.5 48.8001C33.9 48.8001 34.4 48.6001 34.7 48.3001L38 45.0001C38.4 44.6001 38.6 44.0001 38.4 43.4001L37 37.6001L51.4 23.3001C53.9 20.9001 55.3 17.5001 55.3 13.8001ZM34 36.0001C33.6 36.4001 33.4 37.0001 33.6 37.6001L35 43.4001L33.8 44.6001L29.9 38.1001C29.8 37.9001 29.6 37.7001 29.3 37.5001L22.8 33.6001L24 32.4001L29.8 33.8001C30.4 33.9001 31 33.8001 31.4 33.4001L46.3 18.5001C47.8 17.0001 49.8 16.0001 51.9 15.6001C51.6 17.7001 50.6 19.6001 49.2 21.1001L34 36.0001Z"
    fill="#EA5357"/>
  <path
    d="M51.9 43.6002L46.9 26.7002L43.7 27.7002L48.4 43.6002L47.4 44.5002L41.8 31.6002L38.7 32.9002L45.2 48.0002C45.4 48.5002 45.8 48.9002 46.4 49.0002C46.5 49.0002 46.6 49.0002 46.8 49.0002C47.2 49.0002 47.6 48.9002 47.9 48.6002L51.4 45.5002C51.8 44.9002 52 44.3002 51.9 43.6002Z"
    fill="#EA5357"/>
  <path
    d="M31.9 92.6001C20 98.2001 10.6 99.0001 6.30003 94.6001C-1.29997 87.0001 6.99998 65.0001 25.5 43.3001L23 41.1001C2.69998 64.8001 -5.10002 87.8001 3.99998 96.9001C6.49998 99.4001 10.1 100.7 14.6 100.7C19.8 100.7 26.2 99.0001 33.4 95.5001L31.9 92.6001Z"
    fill="#020203"/>
  <path
    d="M88.5 58.2C88.2 57.7 87.6 57.3001 87 57.3001H81.3L76.7 48.2001C76.4 47.6001 75.8 47.3 75.2 47.3H58.5C57.6 47.3 56.8 48 56.8 49V62.4001C56.8 63.3001 57.5 64.1 58.5 64.1H63.5V82.5C63.5 83.4 64.2 84.2 65.2 84.2H73.6C74 84.2 74.5 84 74.8 83.7L81.5 77C81.8 76.7 82 76.3001 82 75.8001V69.6L88.4 60C88.8 59.4 88.8 58.7 88.5 58.2ZM79 68.1C78.8 68.4 78.7 68.7 78.7 69V75L73 80.7H67V62.3001C67 61.4001 66.3 60.6 65.3 60.6H60.3V50.6H74.3L78.9 59.7C79.2 60.3 79.8 60.6 80.4 60.6H84L79 68.1Z"
    fill="#020203"/>
  <path
    d="M89.7 43.9001L83.5 33C83.2 32.5 82.6 32.2001 82 32.2001H72C71.4 32.2001 70.9 32.5001 70.6 32.9001L67.8 37.2001H63.7V28.8H72.1C72.5 28.8 73 28.6 73.3 28.3L79.5 22.1H87.2V18.8H78.8C78.4 18.8 77.9 19 77.6 19.3L71.4 25.5H62.1C61.2 25.5 60.4 26.2001 60.4 27.2001V38.9001C60.4 39.8001 61.1 40.6 62.1 40.6H68.8C69.4 40.6 69.9 40.3001 70.2 39.9001L73 35.6H81.2L87.4 46.5C87.7 47 88.3 47.3 88.9 47.3H95.6V44L89.7 43.9001Z"
    fill="#020203"/>
  <path
    d="M48.6 60.6001H39.3L34.8 56.1001C34.5 55.8001 34.1 55.6001 33.6 55.6001H25.2C24.3 55.6001 23.5 56.3001 23.5 57.3001V69.0001C23.5 69.9001 24.2 70.7001 25.2 70.7001H31.9V87.4001C31.9 88.0001 32.3 88.6001 32.8 88.9001C33 89.0001 33.3 89.1001 33.5 89.1001C33.9 89.1001 34.2 89.0001 34.5 88.8001L41.2 83.8001C41.6 83.5001 41.9 83.0001 41.9 82.5001V78.3001L49.6 72.1001C50 71.8001 50.2 71.3001 50.2 70.8001V62.4001C50.3 61.4001 49.5 60.6001 48.6 60.6001ZM46.9 69.8001L39.2 76.0001C38.8 76.3001 38.6 76.8001 38.6 77.3001V81.5001L35.3 84.0001V69.0001C35.3 68.1001 34.6 67.3001 33.6 67.3001H26.9V58.9001H32.9L37.4 63.4001C37.7 63.7001 38.1 63.9001 38.6 63.9001H47V69.8001H46.9Z"
    fill="#020203"/>
  <path
    d="M14.9 36.3001L9.90002 27.9001C9.60002 27.4001 9.1 27.1001 8.5 27.1001H6.80005V30.4001H7.5L11.4 36.8001L7.30005 40.9001C7.00005 41.2001 6.80005 41.6001 6.80005 42.1001V47.1001H1.80005V50.4001H8.5C9.4 50.4001 10.2 49.7001 10.2 48.7001V42.7001L14.7 38.2001C15.2 37.8001 15.3 37.0001 14.9 36.3001Z"
    fill="#020203"/>
  <path
    d="M51.9 2.1001V4.1001L46.5 5.5001C46.3 5.5001 46.1 5.6001 46 5.7001L41.8 8.5001L32.6 3.9001L31.1 6.9001L41.1 11.9001C41.3 12.0001 41.6 12.1001 41.8 12.1001C42.1 12.1001 42.4 12.0001 42.7 11.8001L47.5 8.6001L53.9 7.0001C54.6 6.8001 55.2 6.1001 55.2 5.4001V2.1001H51.9V2.1001Z"
    fill="#020203"/>
</svg>
