<?xml version="1.0" standalone="no"?>
<!DOCTYPE svg PUBLIC "-//W3C//DTD SVG 20010904//EN"
 "http://www.w3.org/TR/2001/REC-SVG-20010904/DTD/svg10.dtd">
<svg version="1.0" xmlns="http://www.w3.org/2000/svg" viewBox="0 0 1435.000000 485.000000"
 preserveAspectRatio="xMidYMid meet">
<metadata>
Created by potrace 1.15, written by Peter Selinger 2001-2017
</metadata>
<g transform="translate(0.000000,485.000000) scale(0.100000,-0.100000)" stroke="none">
<path d="M11955 4600 c-121 -22 -221 -39 -222 -39 -2 -1 -3 -869 -3 -1931 l0
-1930 240 0 240 0 2 631 3 632 150 -113 c326 -245 603 -501 854 -789 81 -93
211 -265 244 -324 l21 -37 283 0 c159 0 283 4 283 9 0 5 -28 51 -61 102 -253
385 -775 932 -1253 1314 l-38 30 179 155 c522 453 797 711 987 925 l89 100
-283 3 -283 2 -55 -62 c-169 -192 -415 -418 -1083 -996 l-39 -34 0 1196 c0
1133 -1 1196 -17 1195 -10 -1 -117 -18 -238 -39z"/>
<path d="M3995 4125 c-104 -19 -205 -37 -222 -40 l-33 -6 0 -369 0 -370 -280
0 -280 0 0 -200 0 -200 279 0 280 0 4 -752 c4 -830 6 -866 68 -1053 87 -263
252 -402 551 -467 140 -30 504 -33 641 -5 87 18 361 107 378 124 8 8 -53 388
-64 400 -3 3 -39 -8 -79 -25 -113 -46 -195 -69 -302 -82 -121 -16 -337 -8
-421 15 -134 36 -223 131 -264 285 -33 121 -41 298 -41 963 l0 597 560 0 560
0 0 200 0 200 -560 0 -560 0 0 410 c0 322 -3 410 -12 409 -7 0 -98 -16 -203
-34z"/>
<path d="M380 3755 l0 -115 1045 0 1045 0 0 115 0 115 -1045 0 -1045 0 0 -115z"/>
<path d="M1319 3399 c-320 -20 -549 -106 -704 -264 -133 -136 -185 -257 -192
-450 -8 -206 34 -322 166 -458 143 -148 312 -240 653 -356 276 -94 378 -134
477 -187 193 -103 261 -186 261 -321 0 -220 -232 -324 -693 -310 -253 7 -443
49 -707 156 -80 33 -123 45 -125 38 -2 -7 -23 -104 -46 -216 -40 -192 -42
-204 -25 -216 32 -24 290 -104 416 -129 69 -14 188 -30 265 -37 169 -14 488
-6 630 16 405 63 639 220 731 490 22 66 28 103 32 205 7 209 -33 322 -162 458
-96 101 -179 161 -336 241 -142 72 -150 75 -485 197 -454 164 -585 259 -585
420 0 141 97 240 283 288 272 71 791 23 1058 -98 13 -6 22 24 58 203 24 116
40 215 37 220 -9 14 -204 58 -364 81 -119 17 -451 43 -502 38 -8 0 -72 -5
-141 -9z"/>
<path d="M7015 3399 c-366 -33 -699 -230 -891 -525 -154 -235 -221 -462 -231
-786 -23 -704 273 -1182 851 -1373 170 -56 270 -69 531 -69 170 -1 259 4 340
17 175 27 455 106 455 128 0 17 -61 394 -65 397 -1 2 -41 -10 -87 -26 -168
-60 -377 -92 -592 -92 -425 0 -713 146 -856 436 -41 82 -82 224 -95 327 l-6
57 942 0 942 0 -6 228 c-9 392 -77 661 -220 872 -80 117 -218 236 -354 304
-171 85 -427 126 -658 105z m321 -433 c150 -48 280 -163 350 -311 42 -89 63
-172 72 -285 l8 -90 -694 0 -693 0 7 38 c22 123 85 273 160 378 177 250 502
361 790 270z"/>
<path d="M10135 3403 c-658 -32 -1115 -344 -1290 -879 -47 -143 -67 -289 -67
-494 -1 -102 5 -223 11 -269 88 -609 459 -981 1096 -1097 125 -23 545 -26 695
-5 211 29 480 101 480 129 0 13 -61 383 -64 389 -1 0 -53 -14 -117 -32 -156
-45 -290 -64 -499 -72 -200 -7 -329 5 -472 43 -321 85 -530 293 -609 606 -27
107 -37 368 -19 489 33 227 141 433 292 558 78 65 237 144 343 170 281 70 653
50 939 -49 33 -11 60 -19 61 -18 5 7 105 391 105 403 0 20 -184 70 -371 100
-83 13 -416 38 -444 33 -5 -1 -37 -3 -70 -5z"/>
<path d="M380 315 l0 -115 1045 0 1045 0 0 115 0 115 -1045 0 -1045 0 0 -115z"/>
</g>
</svg>
