<svg viewBox="0 0 122 122" fill="none" xmlns="http://www.w3.org/2000/svg">
  <path
    d="M56.1 0C59 0 62 0 64.9 0C67.1 0.3 69.4 0.2 71.6 0.6C80.5 2.2 88.7 5.6 96.2 10.9C103.5 16.1 109.5 22.5 113.9 30.3C117.9 37.2 120.6 44.6 121.5 52.6C121.6 53.8 121.6 55.1 121.8 56.4C121.8 59.4 121.8 62.4 121.8 65.4C121.5 67.3 121.6 69.3 121.2 71.3C119.2 82.3 114.7 92.1 107.4 100.6C99.7 109.7 90.1 115.9 78.7 119.5C74.4 120.8 70 121.8 65.4 121.7C65.2 121.7 65 121.7 64.8 121.8C61.9 121.8 59.1 121.8 56.2 121.8C53.5 121.5 50.7 121.4 48 120.8C38.1 118.6 29.1 114.3 21.4 107.7C11.7 99.4 5.1 89 1.7 76.6C0.7 73.1 0.1 69.6 0.1 65.9C0.1 65.7 0.1 65.5 0 65.3C0 62.2 0 59.1 0 56C0.3 54.1 0.2 52.2 0.6 50.3C2.6 39.3 7.1 29.6 14.4 21.1C20.8 13.6 28.6 7.9 37.7 4.1C42.4 2.2 47.2 0.8 52.2 0.2C53.5 0.2 54.8 0.3 56.1 0Z"
    fill="#F1F2FA"/>
  <path
    d="M73.2999 100.4C60.6999 100.4 48.0999 100.4 35.4999 100.4C35.0999 100 34.6999 99.7001 34.2999 99.3C32.2999 97.3 30.3999 95.3001 28.2999 93.4001C27.0999 92.3001 26.5999 91.0001 26.5999 89.4001C26.5999 73.5001 26.5999 57.7001 26.5999 41.8C26.5999 40.5 26.1999 39.2001 25.9999 37.9001C25.7999 36.5001 25.3999 35.2 25.3999 33.8C25.2999 30.3 25.3999 26.7 25.3999 23.1C25.3999 22.3001 25.5999 21.6 26.3999 21.3C38.9999 21.3 51.4999 21.3 64.0999 21.3C64.3999 21.8 64.7999 22.2001 64.9999 22.7001C67.3999 29.1001 69.7999 35.6 72.1999 42.1C73.1999 44.9 74.5999 47.6 74.1999 50.7001C74.0999 51.4001 74.3999 51.7001 75.0999 51.7001C80.3999 51.7001 85.6999 51.7001 90.9999 51.7001C94.5999 51.7001 96.5999 54.5 96.5999 57.3C96.4999 68.1 96.5999 78.8001 96.5999 89.6001C96.5999 90.1001 96.5999 90.6001 96.4999 91.1001C95.8999 93.6001 93.7999 95.2 90.9999 95.2C85.6999 95.2 80.4999 95.2 75.1999 95.2C74.8999 95.2 74.5999 95.2 74.0999 95.2C74.0999 96.4 74.0999 97.4 74.0999 98.5C74.0999 99.2 73.8999 99.9001 73.2999 100.4ZM71.3999 49C71.0999 49 70.8999 49 70.7999 49C59.7999 49 48.8999 49 37.8999 49C37.1999 49 37.0999 49.3001 37.0999 49.9001C37.0999 65.6001 37.0999 81.3 37.0999 97C37.0999 97.3 37.0999 97.5 37.0999 97.8C48.4999 97.8 59.8999 97.8 71.2999 97.8C71.2999 96.9 71.2999 96.1 71.2999 95.2C70.4999 95.2 69.7999 95.2 68.9999 95.2C65.6999 95.2 63.3999 93.0001 63.3999 89.6001C63.3999 78.8001 63.3999 68 63.3999 57.2001C63.3999 56.6001 63.4999 56 63.5999 55.5C64.2999 53.2001 66.2999 51.8001 68.6999 51.7001C69.4999 51.7001 70.3999 51.7001 71.1999 51.7001C71.3999 50.7001 71.3999 49.9 71.3999 49ZM80.5999 54.3C80.2999 54.3 80.0999 54.3 79.7999 54.3C76.1999 54.3 72.6999 54.3 69.0999 54.3C67.0999 54.3 65.9999 55.3001 65.9999 57.4001C65.9999 68.1001 65.9999 78.8 65.9999 89.5C65.9999 91.5 66.9999 92.6001 69.0999 92.6001C72.6999 92.6001 76.1999 92.6001 79.7999 92.6001C79.9999 92.6001 80.2999 92.6001 80.5999 92.6001C80.5999 79.8001 80.5999 67.1 80.5999 54.3ZM34.5999 95.9001C34.5999 95.3001 34.5999 94.9001 34.5999 94.4001C34.5999 79.2001 34.5999 64 34.5999 48.8C34.5999 48.2 34.4999 47.6 34.2999 47C32.6999 42.6 31.0999 38.2 29.4999 33.8C29.0999 32.7 28.6999 31.6 28.1999 30.3C28.1999 32.1 28.0999 33.8001 28.1999 35.4001C28.2999 36.7001 28.9999 38.0001 29.0999 39.4001C29.2999 41.3001 29.2999 43.1 29.2999 45C29.2999 59.8 29.2999 74.7 29.2999 89.5C29.2999 90 29.2999 90.6001 29.5999 90.9001C31.0999 92.6001 32.7999 94.2001 34.5999 95.9001ZM70.7999 46.4001C70.6999 46.1001 70.6999 45.9001 70.5999 45.7001C67.9999 38.7001 65.3999 31.6 62.7999 24.6C62.5999 24.0001 62.2999 23.9 61.6999 23.9C50.9999 23.9 40.2999 23.9 29.6999 23.9C29.2999 23.9 28.8999 23.9 28.3999 23.9C28.4999 24.4 28.5999 24.7 28.7999 25.1C31.2999 31.9001 33.8999 38.8 36.2999 45.6C36.4999 46.2 36.7999 46.4001 37.3999 46.4001C48.0999 46.4001 58.8999 46.4001 69.5999 46.4001C70.0999 46.4001 70.3999 46.4001 70.7999 46.4001ZM83.2999 54.3C83.2999 67.1 83.2999 79.8001 83.2999 92.6001C84.3999 92.6001 85.3999 92.6001 86.3999 92.6001C87.0999 92.6001 87.2999 92.4 87.2999 91.7C87.2999 79.9 87.2999 68.2001 87.2999 56.4001C87.2999 55.9001 87.2999 55.3 87.2999 54.8C87.2999 54.6 87.0999 54.3 86.8999 54.3C85.6999 54.3 84.4999 54.3 83.2999 54.3ZM89.9999 54.4001C89.9999 67.1001 89.9999 79.8 89.9999 92.5C92.4999 92.8 93.8999 91.8 93.8999 89.7C93.8999 78.9 93.8999 68.2001 93.8999 57.4001C93.8999 55.1001 92.1999 53.9001 89.9999 54.4001Z"
    fill="#7633FF"/>
  <path
    d="M42.3998 77.3001C42.3998 82.6001 42.3998 88.0001 42.3998 93.3001C42.3998 93.5001 42.3998 93.7001 42.3998 93.9001C42.2998 94.6001 41.7998 95.1001 41.0998 95.1001C40.3998 95.1001 39.8998 94.6001 39.7998 93.9001C39.7998 93.6001 39.7998 93.2001 39.7998 92.9001C39.7998 82.4001 39.7998 71.8001 39.7998 61.3001C39.7998 60.1001 40.1998 59.5001 41.1998 59.6001C41.7998 59.6001 42.1998 60.0001 42.3998 60.6001C42.4998 60.9001 42.3998 61.2001 42.3998 61.5001C42.3998 66.8001 42.3998 72.1001 42.3998 77.3001Z"
    fill="#7633FF"/>
  <path
    d="M54.1997 62.2C52.8997 62.2 51.6997 62.2 50.3997 62.2C48.6997 62.2 47.6997 61.2 47.6997 59.5C47.6997 58.8 47.6997 58 47.6997 57.3C47.6997 55.4 48.6997 54.4 50.6997 54.4C52.7997 54.4 54.9997 54.4 57.0997 54.4C57.5997 54.4 57.9997 54.4 58.4997 54.4C59.7997 54.5 60.7997 55.6 60.8997 56.9C60.8997 57.8 60.8997 58.7 60.8997 59.6C60.8997 61.1 59.7997 62.2 58.2997 62.2C56.8997 62.2 55.5997 62.2 54.1997 62.2ZM50.3997 59.5C52.9997 59.5 55.6997 59.5 58.1997 59.5C58.1997 58.6 58.1997 57.8 58.1997 56.9C55.5997 56.9 52.9997 56.9 50.3997 56.9C50.3997 57.8 50.3997 58.7 50.3997 59.5Z"
    fill="#7633FF"/>
  <path
    d="M42.4 54.3001C42.4 54.8001 42.4 55.3001 42.4 55.8001C42.3 56.5001 41.8 56.9001 41.2 56.9001C40.5 56.9001 40 56.5001 40 55.8001C40 54.8001 40 53.9001 40 52.9001C40 52.2001 40.6 51.8001 41.2 51.7001C41.8 51.7001 42.4 52.2001 42.5 52.9001C42.5 53.2001 42.5 53.4001 42.5 53.7001C42.4 53.9001 42.4 54.1001 42.4 54.3001Z"
    fill="#7633FF"/>
  <path
    d="M76.7 82.0001C78.5 84.7001 78.4 87.2001 76.3 88.9001C74.5 90.4001 71.9 90.3001 70.2 88.6001C68.7 87.2001 68 84.4001 70.2 82.0001C69.1 80.8001 68.6 79.4001 69 77.7001C69.2 76.6001 69.9 75.7001 70.8 75.0001C72.5 73.7001 75.1 73.9001 76.7 75.4001C78.4 77.2001 78.5 79.5001 76.7 82.0001ZM75.4 85.4001C75.4 84.3001 74.6 83.4001 73.4 83.3001C72.3 83.3001 71.4 84.2001 71.3 85.3001C71.3 86.4001 72.2 87.3001 73.3 87.3001C74.4 87.3001 75.4 86.4001 75.4 85.4001ZM75.4 78.7001C75.4 77.7001 74.5 76.7001 73.4 76.7001C72.3 76.7001 71.4 77.6001 71.4 78.7001C71.4 79.8001 72.3 80.7001 73.4 80.7001C74.5 80.7001 75.4 79.8001 75.4 78.7001Z"
    fill="#7633FF"/>
  <path
    d="M52.4 43.7001C48.3 43.7001 44.2 43.7001 40.1 43.7001C38.8 43.7001 38.5 43.5001 38.1 42.3001C36.4 37.8001 34.8 33.3001 33.1 28.8001C32.6 27.3001 33.1 26.6001 34.7 26.6001C42.9 26.6001 51.1 26.6001 59.3 26.6001C60.5 26.6001 60.8 26.8001 61.2 28.0001C62.9 32.6001 64.6 37.2001 66.3 41.8001C66.7 42.9001 66.2 43.8001 64.9 43.8001C60.8 43.7001 56.6 43.7001 52.4 43.7001ZM36.1 29.2001C36.2 29.5001 36.2 29.8001 36.3 30.0001C37.6 33.4001 38.9 36.9001 40.1 40.3001C40.3 40.9001 40.5 41.1001 41.2 41.1001C48.3 41.1001 55.4 41.1001 62.5 41.1001C62.7 41.1001 63 41.1001 63.3 41.1001C63.2 40.8001 63.2 40.7001 63.1 40.5001C61.8 37.0001 60.5 33.5001 59.3 30.0001C59.1 29.4001 58.8 29.2001 58.2 29.2001C51.4 29.2001 44.7 29.2001 37.9 29.2001C37.3 29.2001 36.7 29.2001 36.1 29.2001Z"
    fill="#7633FF"/>
  <path
    d="M51.8 31.8C51.6 32.2 51.4 32.6 51.2 32.8C49.1 35 46.9 37.1 44.8 39.2C44.2 39.8 43.4 39.8 42.9 39.3C42.4 38.8 42.4 38 43 37.4C45.1 35.3 47.3 33.1 49.4 31C49.9 30.5 50.4 30.4 50.9 30.7C51.3 31 51.5 31.4 51.8 31.8Z"
    fill="#7633FF"/>
  <path
    d="M45.2001 31.8001C45.0001 32.2001 44.8001 32.6001 44.6001 32.8001C43.8001 33.7001 42.9001 34.6001 42.0001 35.4001C41.4001 36.0001 40.7001 35.9001 40.1001 35.4001C39.6001 34.9001 39.6001 34.1001 40.1001 33.6001C41.0001 32.7001 41.8001 31.8001 42.8001 31.0001C43.1001 30.7001 43.8001 30.6001 44.2001 30.8001C44.7001 30.9001 44.9001 31.4001 45.2001 31.8001Z"
    fill="#7633FF"/>
</svg>
