<?xml version="1.0" standalone="no"?>
<!DOCTYPE svg PUBLIC "-//W3C//DTD SVG 20010904//EN"
 "http://www.w3.org/TR/2001/REC-SVG-20010904/DTD/svg10.dtd">
<svg version="1.0" xmlns="http://www.w3.org/2000/svg" viewBox="0 0 711.000000 724.000000"
 preserveAspectRatio="xMidYMid meet">
<metadata>
Created by potrace 1.15, written by Peter Selinger 2001-2017
</metadata>
<g fill="#000000" stroke="none">
<path d="M3620 5883 c-1059 -107 -1860 -991 -1860 -2053 0 -82 7 -202 15 -267
15 -114 60 -318 75 -343 5 -9 23 -7 71 8 76 24 74 15 36 182 -28 125 -47 256
-47 332 l0 48 119 0 c117 0 120 1 140 26 19 24 21 40 21 162 l0 136 105 106
c63 64 105 115 105 127 0 18 -195 357 -226 394 -8 8 -14 20 -14 26 0 19 135
217 200 294 178 209 381 366 633 490 l87 44 205 -103 c113 -56 214 -102 224
-102 10 0 70 33 132 74 109 70 120 75 249 106 154 37 180 54 180 119 l0 38 73
-13 c374 -65 723 -242 1007 -512 l85 -81 -115 -1 -115 0 -140 -140 -140 -140
-212 0 c-208 0 -212 0 -227 -22 -14 -19 -16 -65 -16 -299 0 -255 1 -277 18
-292 16 -15 45 -17 194 -17 l176 0 24 28 c12 15 46 63 73 105 l50 77 164 -2
164 -3 127 -223 c70 -122 135 -231 145 -242 17 -18 31 -20 173 -20 l155 0 -6
-177 c-6 -208 -32 -348 -98 -538 -229 -664 -787 -1142 -1484 -1271 -79 -15
-147 -19 -330 -18 -210 0 -241 2 -356 27 -337 71 -622 209 -882 427 -104 87
-231 225 -305 330 -25 36 -49 69 -53 74 -12 14 -130 -66 -124 -84 16 -41 133
-188 235 -293 168 -175 318 -290 502 -387 l88 -46 -108 -37 c-165 -56 -267
-77 -392 -84 -130 -6 -207 5 -286 41 -292 134 -297 551 -15 1141 150 312 363
639 627 962 l83 101 -53 46 c-30 25 -58 46 -63 46 -10 -1 -119 -134 -248 -304
-355 -468 -592 -934 -676 -1326 -30 -139 -32 -363 -5 -460 57 -205 202 -340
416 -386 97 -21 318 -13 440 15 116 26 266 76 377 123 l93 40 62 -21 c335
-110 719 -131 1073 -60 861 174 1517 893 1626 1782 17 143 7 462 -20 604 -104
554 -421 1037 -885 1347 -342 229 -746 349 -1159 344 -84 0 -168 -3 -187 -5z
m183 -177 c-104 -27 -133 -40 -207 -89 -47 -31 -90 -57 -96 -57 -12 0 -210 98
-210 104 0 7 179 47 274 61 50 7 152 13 226 13 l135 0 -122 -32z m1615 -828
c143 -222 243 -474 286 -725 l13 -73 -108 0 -108 0 -130 229 c-72 126 -137
234 -145 240 -9 8 -88 11 -262 9 l-249 -3 -65 -97 -65 -97 -82 -1 -83 0 0 165
0 165 175 0 c133 0 183 3 203 14 15 8 83 71 152 140 l125 126 141 0 142 0 60
-92z m-3269 -387 c39 -66 71 -123 71 -128 0 -5 -40 -49 -90 -98 l-90 -90 0
-117 0 -118 -65 0 c-50 0 -65 3 -65 15 0 47 36 255 60 349 22 87 98 306 106
306 1 0 34 -54 73 -119z"/>
<path d="M3875 5390 c-127 -26 -194 -68 -340 -210 l-120 -117 -325 98 c-179
54 -338 99 -354 99 -23 0 -47 -18 -117 -87 -79 -77 -89 -91 -89 -122 0 -20 4
-42 9 -49 4 -7 129 -67 277 -133 148 -66 271 -122 273 -125 3 -2 -17 -26 -43
-53 l-48 -48 -111 28 c-170 43 -166 44 -269 -58 -79 -79 -88 -91 -88 -125 0
-45 7 -51 213 -173 l148 -88 96 -161 c116 -195 126 -206 172 -206 31 0 46 11
123 88 103 103 101 95 58 262 l-29 115 49 50 c27 27 51 47 53 45 2 -3 53 -119
113 -259 60 -140 117 -265 127 -278 13 -16 29 -23 53 -23 28 0 48 13 116 72
100 88 107 96 107 128 0 14 -44 171 -98 350 l-98 325 102 105 c161 166 218
272 231 435 6 62 4 73 -16 98 -19 24 -28 27 -78 26 -31 -1 -75 -5 -97 -9z m31
-177 c-24 -100 -49 -129 -400 -478 -189 -187 -346 -350 -350 -361 -4 -13 7
-75 25 -149 l32 -127 -20 -20 -20 -20 -84 139 -84 138 -142 86 c-141 85 -142
86 -123 104 20 18 24 18 151 -13 90 -21 137 -28 152 -22 12 5 164 151 337 325
328 330 380 375 458 406 66 26 75 25 68 -8z m-876 -193 c135 -40 248 -76 252
-79 5 -4 -9 -24 -31 -45 l-38 -37 -229 101 c-126 56 -233 104 -237 107 -11 7
14 35 27 30 6 -2 121 -37 256 -77z m649 -630 c33 -113 67 -226 75 -252 12 -42
12 -48 -3 -62 -15 -14 -25 5 -120 225 l-104 240 39 40 c26 27 40 35 45 27 4
-7 34 -105 68 -218z"/>
<path d="M4156 3919 l-26 -20 0 -314 c0 -385 -14 -355 162 -355 l118 0 0 -399
0 -400 26 -20 c25 -20 40 -21 216 -21 144 0 195 3 216 14 15 8 91 79 170 158
l142 145 0 144 0 144 140 210 c150 224 161 254 120 295 -18 18 -33 20 -153 20
l-132 0 -100 199 c-71 144 -105 203 -122 210 -16 7 -150 11 -387 11 -352 0
-364 -1 -390 -21z m794 -329 c56 -112 108 -204 119 -210 11 -5 54 -10 95 -10
42 0 76 -2 76 -5 0 -3 -46 -74 -102 -158 l-103 -152 -3 -140 -3 -140 -117
-117 -117 -118 -117 0 -117 0 -3 401 -3 401 -24 19 c-20 16 -40 19 -137 19
l-114 0 0 205 0 205 285 0 285 0 100 -200z"/>
<path d="M2759 3571 l-24 -19 0 -282 0 -282 24 -19 c20 -17 40 -19 172 -19
l149 0 0 -350 c0 -239 4 -357 11 -374 7 -14 25 -30 42 -35 40 -15 63 -2 232
127 l140 107 3 107 3 107 165 131 c90 73 169 140 174 150 6 11 10 108 10 218
0 263 21 242 -250 242 l-203 0 -108 105 -108 105 -204 0 c-187 0 -207 -2 -228
-19z m471 -236 l107 -105 187 0 186 0 0 -118 0 -118 -160 -128 c-88 -70 -167
-137 -175 -149 -11 -15 -15 -49 -15 -117 l-1 -95 -64 -48 -65 -47 0 325 c0
312 -1 326 -20 345 -18 18 -33 20 -175 20 l-155 0 0 170 0 170 122 0 122 0
106 -105z"/>
</g>
</svg>
