<svg viewBox="0 0 122 110" fill="none" xmlns="http://www.w3.org/2000/svg">
  <path
    d="M109.2 31.0999H12.3C5.59999 31.0999 0.200012 36.4998 0.200012 43.1998V97.6999C0.200012 104.4 5.59999 109.8 12.3 109.8H109.2C115.9 109.8 121.3 104.4 121.3 97.6999V43.1998C121.4 36.4998 115.9 31.0999 109.2 31.0999ZM115.3 97.6999C115.3 101 112.6 103.8 109.2 103.8H12.3C8.99999 103.8 6.20001 101.1 6.20001 97.6999V43.1998C6.20001 39.8998 8.89999 37.0999 12.3 37.0999H109.2C112.5 37.0999 115.3 39.7998 115.3 43.1998V97.6999Z"
    fill="#020203"/>
  <path
    d="M93 7.79989C90.2 1.69989 83 -0.900115 76.9 1.89988L27.4 24.9999H41.7L79.4 7.39988C82.4 5.99988 86 7.29989 87.4 10.2999L94.2 24.9999H100.9L93 7.79989Z"
    fill="#020203"/>
  <path
    d="M36.6 43.2H18.4C15.1 43.2 12.3 45.9 12.3 49.3V61.3999C12.3 64.6999 15 67.5 18.4 67.5H36.6C39.9 67.5 42.7 64.7999 42.7 61.3999V49.3C42.6 45.9 39.9 43.2 36.6 43.2ZM36.6 61.3999H18.4V49.3H36.6V61.3999Z"
    fill="#020203"/>
  <path d="M73 85.5999H12.4V91.6999H73V85.5999Z" fill="#EA5357"/>
  <path
    d="M100.2 79.5C97.9 79.5 95.8 80.4 94.1 81.9C92.5 80.5 90.4 79.5 88 79.5C83 79.5 78.9 83.6 78.9 88.6C78.9 93.6 83 97.7 88 97.7C90.3 97.7 92.4 96.8 94.1 95.3C95.7 96.7 97.8 97.7 100.2 97.7C105.2 97.7 109.3 93.6 109.3 88.6C109.3 83.6 105.2 79.5 100.2 79.5ZM88.1 91.6C86.4 91.6 85.1 90.2 85.1 88.6C85.1 86.9 86.5 85.6 88.1 85.6C89.7 85.6 91.1 87 91.1 88.6C91.1 90.2 89.7 91.6 88.1 91.6ZM100.2 91.6C98.5 91.6 97.2 90.2 97.2 88.6C97.2 86.9 98.6 85.6 100.2 85.6C101.8 85.6 103.2 87 103.2 88.6C103.2 90.2 101.8 91.6 100.2 91.6Z"
    fill="#EA5357"/>
</svg>
