<svg id="Layer_1" data-name="Layer 1" xmlns="http://www.w3.org/2000/svg" viewBox="0 0 178.29 29.58">
  <title>Artboard 1 copy</title>
  <path
    d="M108.44,8.74c6.85-4.34,14.06-3,18.33,2a12.49,12.49,0,0,1,10.74-4.57c6.9.27,11.28,4.85,11.28,11.73q0,7.4,0,14.77c0,2.32-.1,2.42-2.35,2.44h-.93c-2.42,0-2.5-.09-2.5-2.48,0-4.61,0-9.23,0-13.84,0-2.82-.9-5.29-3.72-6.43a7.69,7.69,0,0,0-8.3,1.24,7.09,7.09,0,0,0-2.36,5.78c0,4.61-.06,9.23,0,13.84,0,1.48-.54,1.9-1.93,1.92-3.89,0-3.89.09-3.89-3.7,0-4.12,0-8.25,0-12.37,0-4.76-2.45-7.34-6.83-7.35s-7.42,3-7.43,7.58-.05,9.11,0,13.66c0,1.57-.5,2.19-2.12,2.18-3.76,0-3.76.06-3.76-3.63V9.7c0-3.08,0-3.07,3.18-3.07C107.27,6.63,108.79,6.42,108.44,8.74Z"
    transform="translate(-6.33 -6.09)"/>
  <path
    d="M41.07,23.14c.81,5.48,5.93,8.41,11.54,6.69a15.15,15.15,0,0,0,4.06-2.08c1.07-.74,1.74-.84,2.62.25,2.25,2.8,2.25,3-.79,5-7.8,5.09-18.5,2.64-22.11-5.18C32.9,20.28,35.28,9.3,45,6.66c10.08-2.72,17.82,4.72,17.35,15-.06,1.4-.9,1.51-2,1.51-5.73,0-11.45,0-17.17,0Zm15-5.17a7,7,0,0,0-7-6.51A7.42,7.42,0,0,0,41.29,18Z"
    transform="translate(-6.33 -6.09)"/>
  <path
    d="M169.58,35.57a14.39,14.39,0,0,1-14.81-14.8,14.93,14.93,0,0,1,29.85,0C184.7,29.15,178.17,35.59,169.58,35.57Zm-8.9-14.7a8.8,8.8,0,0,0,9,9.16,9,9,0,0,0,9-9.22,9,9,0,0,0-9.09-9.18A8.83,8.83,0,0,0,160.68,20.87Z"
    transform="translate(-6.33 -6.09)"/>
  <path
    d="M74.44,8.93A13.58,13.58,0,0,1,86.71,6.7a10.38,10.38,0,0,1,7.85,10c.14,5.6,0,11.2.07,16.79,0,1.08-.36,1.6-1.47,1.6-5.11,0-4.29.28-4.32-4s.06-8.49,0-12.73c-.1-3.94-2.12-6.13-5.82-6.63a7.25,7.25,0,0,0-8.11,4.91,9,9,0,0,0-.3,2.54c0,4.55-.07,9.1,0,13.65,0,1.68-.54,2.28-2.23,2.26-3.65,0-3.65,0-3.65-3.55V10c0-3.37,0-3.33,3.47-3.35C73.58,6.61,74.67,6.8,74.44,8.93Z"
    transform="translate(-6.33 -6.09)"/>
  <path
    d="M22.53,12.05c-4.87,0-9.3-.05-13.73,0-1.57,0-2.13-.56-2-2a4.5,4.5,0,0,0,0-1.1C6.6,7.16,7.36,6.57,9.13,6.6c6,.08,12.07,0,18.1.06,1.07,0,2.83.16,3.07.75A4.19,4.19,0,0,1,29.62,12c-3.23,3.63-6.36,7.35-9.52,11-1.79,2.08-3.58,4.18-5.64,6.59H27.68c3,0,4.09,1.5,3,4.48a1.75,1.75,0,0,1-1.35.89q-10.8.09-21.6,0a1.94,1.94,0,0,1-1.36-1.29,5,5,0,0,1,1.21-4.4C12.24,24.21,16.69,19,21.2,13.74,21.59,13.29,21.93,12.81,22.53,12.05Z"
    transform="translate(-6.33 -6.09)"/>
</svg>